<?xml version="1.0" encoding="utf-8"?>
<!-- Generator: Adobe Illustrator 24.2.3, SVG Export Plug-In . SVG Version: 6.00 Build 0)  -->
<svg version="1.1" id="Слой_1" xmlns="http://www.w3.org/2000/svg" xmlns:xlink="http://www.w3.org/1999/xlink" x="0px" y="0px"
	 viewBox="0 0 540 387.5" style="enable-background:new 0 0 540 387.5;" xml:space="preserve">
<style type="text/css">
	.st0{fill:#F2F2F2;}
	.st1{fill:#3F3D56;}
	.st2{fill:none;stroke:#3F3D56;stroke-width:2;}
	.st3{fill:#111B47;}
	.st4{fill:#E6E8EC;}
	.st5{fill:#FFFFFF;}
	.st6{fill:#FF6584;}
	.st7{fill:#2F2E41;}
	.st8{fill:#9F616A;}
	.st9{opacity:0.1;enable-background:new    ;}
	.st10{fill:#EFB7B9;}
	.st11{opacity:0.1;}
	.st12{fill:#A1616A;}
	.st13{fill:#D0CDE1;}
</style>
<path class="st0" d="M540,232.72c0,67.66-40.29,91.28-90,91.28s-90-23.62-90-91.28S450,79,450,79S540,165.07,540,232.72z"/>
<path class="st1" d="M446.95,313.88l0.92-56.68L486,187.09l-37.98,61.22l0.41-25.48l26.28-50.73l-26.17,43.98l0,0l0.74-45.83
	l28.14-40.39l-28.02,33.18L449.86,79l-2.91,111.26l0.24-4.59l-28.61-44.02l28.15,52.83l-2.67,51.19l-0.08-1.36L411,197.99
	l32.88,51.12l-0.33,6.4l-0.06,0.1l0.03,0.52L436.75,386h9.04l1.08-67.08l32.8-51L446.95,313.88z"/>
<path class="st0" d="M49,345.41C49,363.64,38.03,370,24.5,370S0,363.64,0,345.41C0,327.19,24.5,304,24.5,304S49,327.19,49,345.41z"
	/>
<path class="st1" d="M23.59,366.5l0.24-15.32L34,332.22l-10.13,16.55l0.11-6.89l7.01-13.71l-6.98,11.89l0.2-12.39l7.5-10.92
	l-7.47,8.97L24.36,303l-0.78,30.08l0.06-1.24l-7.63-11.9l7.51,14.28l-0.71,13.84l-0.02-0.37L14,335.17l8.77,13.82l-0.09,1.73
	l-0.02,0.03l0.01,0.14L20.87,386h2.41l0.29-18.13l8.75-13.79L23.59,366.5z"/>
<path class="st2" d="M3,386.5h489"/>
<path class="st3" d="M493,370.23c0,12.43-7.39,16.76-16.5,16.76c-0.21,0-0.42,0-0.63-0.01c-0.42-0.01-0.84-0.03-1.25-0.06
	c-8.22-0.58-14.61-5.14-14.61-16.7c0-11.96,15.28-27.05,16.43-28.17l0,0c0.04-0.04,0.07-0.07,0.07-0.07S493,357.81,493,370.23z"/>
<path class="st1" d="M475.71,385.11l6.11-8.43l-6.12,9.36l-0.02,0.97c-0.43-0.01-0.85-0.03-1.27-0.06l0.66-12.43l-0.01-0.1
	l0.01-0.02l0.06-1.17l-6.14-9.38l6.16,8.5l0.01,0.25l0.5-9.39l-5.26-9.7l5.32,8.05l0.52-19.48l0-0.07v0.07l-0.09,15.36l5.23-6.09
	l-5.25,7.41l-0.14,8.41l4.88-8.07l-4.9,9.31l-0.08,4.68l7.09-11.24l-7.12,12.87L475.71,385.11z"/>
<path class="st1" d="M315.29,88h1.42c1.27,0,2.29,1.03,2.29,2.29v42.42c0,1.27-1.03,2.29-2.29,2.29h-1.42
	c-1.27,0-2.29-1.03-2.29-2.29V90.29C313,89.03,314.03,88,315.29,88z"/>
<path class="st1" d="M125.5,51L125.5,51c0.83,0,1.5,0.67,1.5,1.5v12c0,0.83-0.67,1.5-1.5,1.5l0,0c-0.83,0-1.5-0.67-1.5-1.5v-12
	C124,51.67,124.67,51,125.5,51z"/>
<path class="st1" d="M125.69,79h0.61c0.94,0,1.69,0.76,1.69,1.69v23.61c0,0.94-0.76,1.69-1.69,1.69h-0.61
	c-0.94,0-1.69-0.76-1.69-1.69V80.69C124,79.76,124.76,79,125.69,79z"/>
<path class="st1" d="M125.5,116L125.5,116c0.83,0,1.5,0.67,1.5,1.5v24c0,0.83-0.67,1.5-1.5,1.5l0,0c-0.83,0-1.5-0.67-1.5-1.5v-24
	C124,116.67,124.67,116,125.5,116z"/>
<path class="st1" d="M161.69,0h118.61C300.02,0,316,15.98,316,35.69v314.61c0,19.71-15.98,35.69-35.69,35.69H161.69
	c-19.71,0-35.69-15.98-35.69-35.69V35.69C126,15.98,141.98,0,161.69,0z"/>
<path class="st4" d="M204.5,12h22c1.38,0,2.5,1.12,2.5,2.5v0c0,1.38-1.12,2.5-2.5,2.5h-22c-1.38,0-2.5-1.12-2.5-2.5v0
	C202,13.12,203.12,12,204.5,12z"/>
<path class="st4" d="M236,17c1.66,0,3-1.34,3-3c0-1.66-1.34-3-3-3s-3,1.34-3,3C233,15.66,234.34,17,236,17z"/>
<path class="st5" d="M305,25.09v335.83c0,8.33-6.78,15.09-15.13,15.08H153.13c-8.36,0-15.13-6.75-15.13-15.08V25.09
	c0-4,1.59-7.84,4.43-10.67c2.84-2.83,6.69-4.42,10.7-4.42h20.46v2.62c0,6.86,5.58,12.42,12.46,12.43h69.54
	c6.88,0,12.46-5.56,12.46-12.43V10h21.81c4.01,0,7.86,1.59,10.7,4.42C303.41,17.25,305,21.09,305,25.09z"/>
<rect x="138" y="88" class="st0" width="167" height="192"/>
<path class="st6" d="M150,306l-0.87-0.78c-3.09-2.82-5.13-4.65-5.13-6.92c-0.02-0.88,0.33-1.72,0.95-2.34
	c0.62-0.62,1.47-0.96,2.35-0.96c1.04,0.01,2.03,0.47,2.7,1.26c0.67-0.79,1.66-1.25,2.7-1.26c0.88-0.01,1.73,0.33,2.35,0.96
	c0.62,0.62,0.96,1.47,0.95,2.34c0,2.28-2.04,4.11-5.13,6.92L150,306z"/>
<path class="st0" d="M181,303.54l1.73,0.46c0.63-1.7,2.12-3,3.98-3.48s3.85-0.07,5.33,1.09l-2.65,2.4H196v-6l-2.66,2.39
	c-1.94-1.58-4.59-2.16-7.08-1.52C183.78,299.5,181.8,301.25,181,303.54L181,303.54z"/>
<path class="st3" d="M148.5,74c4.14,0,7.5-3.36,7.5-7.5c0-4.14-3.36-7.5-7.5-7.5s-7.5,3.36-7.5,7.5C141,70.64,144.36,74,148.5,74z"
	/>
<rect x="162" y="62" class="st3" width="72" height="9"/>
<rect x="143" y="319" class="st0" width="72" height="9"/>
<rect x="144" y="338" class="st0" width="151" height="9"/>
<path class="st0" d="M174,306l-1.84-3.29c0.91-2.23,0.07-4.8-1.97-6.04c-2.04-1.23-4.66-0.75-6.14,1.14
	c-1.48,1.88-1.38,4.59,0.25,6.35c1.62,1.76,4.27,2.04,6.21,0.64L174,306z"/>
<path class="st7" d="M206.55,132.45L206.55,132.45c-5.7,1.18-10.71,4.6-13.92,9.51c-3.21,4.91-4.36,10.9-3.19,16.67l4.53,22.37
	l5.07-1.05l0.36-2.37l1.06,2.08l30.85-6.38l0.36-2.37l1.06,2.08l4.26-0.88l-4.53-22.37c-1.17-5.76-4.55-10.82-9.41-14.06
	C218.2,132.43,212.26,131.27,206.55,132.45z"/>
<path class="st8" d="M245.65,201L272,217.19l-3.29,7.81L244,213.28L245.65,201z"/>
<path class="st3" d="M211.91,219.64c0,0-53.51,0-62.34,13.76s-1.65,33.03,25.93,37.43c27.58,4.4,111.44,6.61,118.06-9.91
	c6.62-16.51,1.66-25.87,1.66-25.87S266.52,215.23,211.91,219.64z"/>
<path class="st3" d="M258.61,232.99L288,244c0,0,12.2-8.81,6.1-18.72c-6.1-9.91-33.83-67.19-33.83-67.19s-7.76-11.01,2.22-17.07
	s13.86,3.85,13.86,3.85s-0.55,2.2,3.33,0.55c3.88-1.65,11.09,3.86,7.21,12.67c-3.88,8.81-6.65,11.01,1.66,10.46
	c3-0.2,5.65-2.34,7.8-4.99c4.12-5.08,2.28-9.17,1.97-15.69c-0.53-11.16-1.41-18.44-4.22-22.83c-3.88-6.06-9.43-11.01-23.85-8.26
	c-14.42,2.75-35.5,16.52-30.5,36.35c4.99,19.83,16.08,41.86,16.08,41.86S263.6,225.83,258.61,232.99z"/>
<path class="st9" d="M259,232.78c-4.76,1.31-10.74,1.95-17.18,2.15c-11.23,0.35-23.88-0.65-33.98-1.77
	c-10.91-1.22-18.85-2.59-18.85-2.59c3.69-3.45,9.35-4.81,16.01-5.31c8.27-0.62,18.07,0.09,27.53-0.22
	c3.49-0.12,6.98,0.14,10.41,0.78C253.4,227.82,259,232.78,259,232.78z"/>
<path class="st8" d="M211.5,173c8.56,0,15.5-6.94,15.5-15.5c0-8.56-6.94-15.5-15.5-15.5s-15.5,6.94-15.5,15.5
	C196,166.06,202.94,173,211.5,173z"/>
<path class="st8" d="M209.25,170.11c0,0,2.72,10.55,0,11.11c-2.72,0.56-9.25,3.33-9.25,3.33l8.16,3.33l15.24,14.45l13.06,6.67
	l6.53-2.22v-12.22L233.2,179c0,0-6.53,2.22-8.17-5c-1.63-7.22-4.9-10-4.9-10L209.25,170.11z"/>
<path class="st8" d="M205.35,185h-6.62c0,0-11.58,3.84-18.2,12.61c-6.62,8.77-17.09,17.54-17.09,17.54s-7.17,9.87-3.31,23.57
	c3.86,13.7,9.37,23.57,14.34,20.83c4.96-2.74-7.17-22.47-7.17-22.47l3.31-12.06c0,0,17.09-19.73,24.26-19.18
	c7.17,0.55,7.72,6.58,7.72,6.58l15.44,4.38l4.96-10.41l-2.76-10.96L205.35,185z"/>
<path class="st1" d="M244.77,220.24c-1.04,1.77-1.8,3.69-2.25,5.69c-0.68,2.95-1.06,5.97-1.13,9c-11.17,0.34-23.75-0.64-33.79-1.75
	c-0.89-2.36-1.86-5.07-2.82-7.81c-2.57-7.4-4.96-14.94-4.96-16.05c0-2.18,11.51,1.64,14.25,1.09c2.74-0.55,3.84-9.29,0-13.65
	c-3.84-4.37-15.08-11.74-15.08-11.74l3.84-1.09c0,0,8.5,6.28,26.04,16.66c17.54,10.38,10.42-6.01,10.42-6.01L229.15,179h4.39
	c0,0,8.5,14.47,12.88,21.03S249.16,213.14,244.77,220.24z"/>
<path class="st7" d="M194.37,142.9l27.92-5.71l3.51,17.13l-27.92,5.71L194.37,142.9z"/>
<path class="st1" d="M282.5,140c4.69,0,8.5-3.81,8.5-8.5c0-4.69-3.81-8.5-8.5-8.5s-8.5,3.81-8.5,8.5
	C274,136.19,277.81,140,282.5,140z"/>
<path class="st5" d="M282.5,136c2.48,0,4.5-2.01,4.5-4.5c0-2.49-2.02-4.5-4.5-4.5s-4.5,2.01-4.5,4.5
	C278,133.99,280.02,136,282.5,136z"/>
<path class="st3" d="M39.47,226l-0.57,4.33c-0.19,1.46-0.39,2.93-0.49,4.4c-0.35,4.9,0.3,9.82,0.13,14.74
	c-0.13,3.78-0.75,7.56-0.45,11.33c0.26,3.34,1.24,6.58,2.2,9.79l1.38,4.59c0.02,0.28,0.18,0.53,0.42,0.68
	c0.24,0.15,0.54,0.18,0.81,0.09l6.11-0.54c-0.39-1.75-0.83-3.58-1.04-5.36c-0.17-1.41-0.27-2.83-0.37-4.24
	c-0.33-4.41-0.69-8.82-1.06-13.24l-0.65-7.75c-0.28-3.36-0.56-6.74-1.43-10.01C43.59,231.5,41.87,228.47,39.47,226z"/>
<path class="st9" d="M39.47,226l-0.57,4.33c-0.19,1.46-0.39,2.93-0.49,4.4c-0.35,4.9,0.3,9.82,0.13,14.74
	c-0.13,3.78-0.75,7.56-0.45,11.33c0.26,3.34,1.24,6.58,2.2,9.79l1.38,4.59c0.02,0.28,0.18,0.53,0.42,0.68
	c0.24,0.15,0.54,0.18,0.81,0.09l6.11-0.54c-0.39-1.75-0.83-3.58-1.04-5.36c-0.17-1.41-0.27-2.83-0.37-4.24
	c-0.33-4.41-0.69-8.82-1.06-13.24l-0.65-7.75c-0.28-3.36-0.56-6.74-1.43-10.01C43.59,231.5,41.87,228.47,39.47,226z"/>
<path class="st1" d="M50.85,375.44c-0.36,0.7-0.67,1.42-0.93,2.16c-0.69,2.04-0.8,4.23-0.9,6.38c-0.05,0.42-0.01,0.84,0.11,1.24
	c0.3,0.77,1.15,1.17,1.95,1.38c3.35,0.9,6.89,0.05,10.34-0.26c3.39-0.3,6.85-0.08,10.17-0.83c0.49-0.09,0.97-0.26,1.41-0.49
	c0.84-0.55,1.47-1.37,1.78-2.33c0.1-0.24,0.17-0.5,0.2-0.76c0.11-1.13-0.88-2.12-1.95-2.49c-1.08-0.37-2.24-0.31-3.38-0.43
	c-4.79-0.49-8.65-4.14-9.42-8.89c-0.04-0.25-5.6-0.1-6.18,0.22c-0.68,0.38-1.1,1.31-1.48,1.95
	C51.96,373.31,51.38,374.36,50.85,375.44z"/>
<path class="st9" d="M50.85,375.44c-0.36,0.7-0.67,1.42-0.93,2.16c-0.69,2.04-0.8,4.23-0.9,6.38c-0.05,0.42-0.01,0.84,0.11,1.24
	c0.3,0.77,1.15,1.17,1.95,1.38c3.35,0.9,6.89,0.05,10.34-0.26c3.39-0.3,6.85-0.08,10.17-0.83c0.49-0.09,0.97-0.26,1.41-0.49
	c0.84-0.55,1.47-1.37,1.78-2.33c0.1-0.24,0.17-0.5,0.2-0.76c0.11-1.13-0.88-2.12-1.95-2.49c-1.08-0.37-2.24-0.31-3.38-0.43
	c-4.79-0.49-8.65-4.14-9.42-8.89c-0.04-0.25-5.6-0.1-6.18,0.22c-0.68,0.38-1.1,1.31-1.48,1.95
	C51.96,373.31,51.38,374.36,50.85,375.44z"/>
<path class="st1" d="M59.85,375.44c-0.36,0.7-0.67,1.42-0.93,2.16c-0.69,2.04-0.8,4.23-0.9,6.38c-0.05,0.42-0.01,0.84,0.11,1.24
	c0.3,0.77,1.15,1.17,1.95,1.38c3.35,0.9,6.89,0.05,10.34-0.26c3.39-0.3,6.85-0.08,10.17-0.83c0.49-0.09,0.97-0.26,1.41-0.49
	c0.84-0.55,1.47-1.37,1.78-2.33c0.1-0.24,0.17-0.5,0.2-0.76c0.11-1.13-0.88-2.12-1.95-2.49c-1.08-0.37-2.24-0.31-3.38-0.43
	c-4.79-0.49-8.65-4.14-9.42-8.89c-0.04-0.25-5.6-0.1-6.18,0.22c-0.68,0.38-1.1,1.31-1.48,1.95
	C60.96,373.31,60.38,374.36,59.85,375.44z"/>
<path class="st7" d="M83,320.95c0.07,11.05-3.11,21.84-6.84,32.23c-1.48,4.11-3.05,8.18-4.7,12.22c-0.98,2.39-2.09,5.05-1.04,7.41
	c-3.03-1.16-6.13-1.85-9.32-1.31c1.22-2.5,1.1-5.42,1.16-8.2c0.11-3.78,0.51-7.55,1.21-11.27c1.07-5.66,2.91-11.14,5.46-16.3
	c0.52-1.09,0.87-2.24,1.06-3.44c0.33-2.65,0.18-5.34-0.45-7.93c-1.17-5.75-3.38-11.22-6.53-16.15c-0.01,0.11-0.02,0.22-0.03,0.33
	c-0.19,1.64-0.46,3.27-0.82,4.89c-0.71,3.42-1.55,6.85-1.42,10.29c0.13,3.65-0.09,7.3-0.67,10.9c-0.18,1.42-0.55,2.8-1.09,4.12
	c-0.35,0.79-0.8,1.53-1.08,2.35c-0.27,0.95-0.42,1.93-0.42,2.91c-0.41,8.32-0.01,18.96,1.68,27.12c-2.84-0.13-5.66,0.52-8.16,1.88
	c-2.04-5.8-3.33-14.03-4.3-20.14c-1.1-7.21-0.87-14.57,0.66-21.7c0.48-2.38,0.66-4.81,0.53-7.24c-0.22-4.83-1.39-9.55-2.56-14.24
	c-0.59-2.38-1.19-4.76-1.78-7.14c-0.85-3.39-1.69-6.78-2.54-10.17c-0.56-2.26-1.13-4.56-0.95-6.88c0.12-1.27,0.39-2.53,0.79-3.74
	c1.26-4.13,3.15-8.03,5.6-11.58c9.75,0.55,19.63-0.37,29.36-1.12c0.47-0.09,0.97-0.01,1.38,0.24c0.33,0.34,0.53,0.79,0.55,1.27
	c1.22,6.98,2.44,13.96,3.66,20.94c0.59,2.91,0.94,5.87,1.04,8.85c0.02,2.96-0.46,5.92-0.35,8.88
	C82.23,313.19,82.97,316.96,83,320.95z"/>
<path class="st9" d="M63,309.18c-0.19,1.62-0.47,3.23-0.84,4.82c-2.16-3.65-4.49-7.21-6.48-10.96c-0.51-0.96-1-1.94-1.49-2.92
	c-0.49-0.98-0.98-1.95-1.47-2.92c-0.27-0.55-0.55-1.1-0.8-1.66c-0.4-0.81-0.71-1.66-0.92-2.54c0.72-0.13,2.51,1.78,3.04,2.27
	c1.1,1.06,2.14,2.18,3.11,3.35c1.18,1.3,2.26,2.68,3.23,4.13C61.63,304.74,62.51,306.91,63,309.18z"/>
<path class="st10" d="M72,207.62c0,0-5.55,8.96-4.52,10.84c1.03,1.88-17.48-1.67-17.48-1.67s10.07-8.96,9.05-12.71
	C58.02,200.32,72,207.62,72,207.62z"/>
<path class="st10" d="M66.5,210c6.9,0,12.5-5.6,12.5-12.5c0-6.9-5.6-12.5-12.5-12.5S54,190.6,54,197.5C54,204.4,59.6,210,66.5,210z"
	/>
<path class="st3" d="M71.86,216.21c-1.33-1.85-3.15-3.3-5.24-4.2c-1.21-0.43-2.46-0.74-3.73-0.91l-4.97-0.87
	c-1.22-0.21-2.52-0.42-3.66,0.08c-0.58,0.29-1.1,0.67-1.56,1.13c-1.73,1.59-3.4,3.34-5.57,4.26c-0.59,0.25-1.21,0.43-1.81,0.69
	c-2.43,1.04-4.24,3.2-5.27,5.62c-1.08,2.54-1.11,5.28-1.03,8.03c0,0.95,0.09,1.9,0.28,2.83c0.25,0.89,0.57,1.75,0.94,2.59
	c0.69,1.79,1.26,3.63,1.72,5.49c1.29,4.9,2.36,9.85,3.21,14.85c0.07,0.72,0.29,1.42,0.63,2.06c0.48,0.64,1.06,1.19,1.72,1.64
	c0.52,0.43,1,0.9,1.44,1.42c0.21,0.22,0.37,0.49,0.46,0.78c0.16,0.74-0.5,1.37-1.03,1.91c-1.11,1.12-1.91,2.51-2.33,4.03
	c-0.26,0.31-0.39,0.71-0.37,1.11c0.11,0.28,0.15,0.58,0.12,0.88c-0.1,0.27-0.26,0.52-0.47,0.72c-0.48,0.62-0.67,1.42-0.52,2.19
	c3.87,1.67,8,2.63,12.21,2.84c1.03,0.05,2.07,0.05,3.09,0.17c0.73,0.09,1.45,0.24,2.18,0.33c1.06,0.1,2.13,0.13,3.2,0.08
	c5.55-0.11,11.26-0.25,16.36-2.44c0.48-2.6-0.55-5.24-1.2-7.8c-1.03-4.07-1.29-8.3-2.06-12.42c-0.53-2.83-1.29-5.61-1.73-8.45
	c-0.44-2.84-0.54-5.79,0.25-8.55c0.7-2.45,0.91-4.95,1.63-7.39c0.72-2.44,1.23-5.09,0.41-7.51
	C78.17,218.42,75.04,216.05,71.86,216.21z"/>
<path class="st7" d="M77.84,191.5c0.61-2.18-0.59-4.46-2.02-6.23c-1.54-1.91-3.53-3.63-5.96-4.1c-1.97-0.39-4.02,0.08-6.03-0.08
	c-1.78-0.14-3.48-0.76-5.25-0.99c-1.6-0.17-3.22-0.11-4.8,0.18c-1.51,0.21-2.98,0.62-4.38,1.2c-5.33,2.32-8.46,8.05-9.18,13.73
	c-0.72,5.68,0.55,11.41,1.81,17l1.14,5.05c1.19,5.26,2.38,10.55,2.7,15.93c0.32,5.38-0.28,10.9-2.53,15.81
	c7.29-3.84,12.93-10.12,15.92-17.69c0.81-2.08,1.41-4.24,2.31-6.28c0.77-1.76,1.76-3.43,2.45-5.22c0.77-2.03,1.14-4.18,1.09-6.34
	c-0.04-1.63-0.32-3.24-0.27-4.87c0.05-1.63,0.47-3.32,1.61-4.5c1.02-1.05,2.46-1.55,3.77-2.21c2.06-1.04,3.86-2.51,5.27-4.32
	c0.83-1.06,0.87-1.51,1.08-2.73C76.77,193.65,77.52,192.65,77.84,191.5z"/>
<path class="st10" d="M77.89,283.92c0.13,1.29-0.11,2.62,0.17,3.88c0.21,0.95,0.71,1.82,0.99,2.75c0.29,1.08,0.44,2.19,0.44,3.31
	c0.04,0.94-0.03,2.08-0.86,2.52c-0.36,0.19-0.8,0.2-1.18,0.36c-0.38,0.16-0.7,0.62-0.49,0.97c0.18,0.29,0.6,0.3,0.93,0.37
	c0.34,0.07,0.71,0.42,0.52,0.71c-0.08,0.09-0.18,0.16-0.3,0.19c-0.35,0.1-0.67,0.26-0.97,0.47c-0.3,0.21-0.46,0.58-0.4,0.95
	c0.04,0.17,0.16,0.32,0.32,0.4c0.16,0.08,0.35,0.07,0.51-0.01c-0.15,0.33-0.23,0.68-0.24,1.04c1.32,0.57,2.82-0.18,4.06-0.9
	c0.54-0.3,1.06-0.63,1.56-0.99c2.04-1.58,3.17-4.06,3.01-6.63c-0.06-0.64-0.16-1.27-0.29-1.9c-0.19-1.09-0.45-2.16-0.76-3.22
	c-0.36-1.12-0.85-2.18-1.27-3.28c-0.9-2.33-1.47-4.77-2.28-7.13c-0.02-0.23-0.14-0.44-0.32-0.58s-0.42-0.19-0.64-0.15
	c-0.91-0.05-1.82,0.04-2.7,0.25c-0.53,0.16-1.41,0.5-1.65,1.06c-0.22,0.51,0.15,0.96,0.38,1.39
	C77.19,281.01,77.69,282.43,77.89,283.92z"/>
<path class="st9" d="M77.31,222c0.26,0.27,0.47,0.58,0.64,0.91c1.72,3.2,1.74,7.03,1.82,10.69c0.09,4.11,0.31,8.22,0.53,12.33
	l0.66,12.28c0.06,1.17,0.13,2.35,0.29,3.51c0.77,0.2,0.8,1.22,0.71,2.03c-0.55,5.01-1.93,10.17-0.49,15
	c0.06,0.25,0.17,0.48,0.34,0.67c-0.73-0.24-1.5-0.25-2.24-0.03c-0.72,0.15-1.41,0.42-2.12,0.59c-0.91,0.21-1.94,0.3-2.56,1.02
	c-0.7-2.17-1.26-4.38-1.67-6.62c-0.34-2.04-0.43-4.16-1.24-6.05c-0.33-0.77-0.76-1.48-1.16-2.2c-2.1-3.83-3.13-8.17-4.13-12.44
	c-0.45-2.03-0.56-4.12-0.32-6.18c0.14-0.94,0.23-1.89,0.25-2.85c-0.06-1.01-0.19-2.01-0.38-2.99c-0.42-2.9-0.23-5.85,0.58-8.67
	c0.75-2.61,1.41-5.36,2.99-7.55C71.36,223.24,74.66,222.04,77.31,222z"/>
<path class="st3" d="M77.31,221c0.26,0.27,0.47,0.58,0.64,0.91c1.72,3.2,1.74,7.03,1.82,10.69c0.09,4.11,0.31,8.22,0.53,12.33
	l0.66,12.28c0.06,1.17,0.13,2.35,0.29,3.51c0.77,0.2,0.8,1.22,0.71,2.03c-0.55,5.01-1.93,10.17-0.49,15
	c0.06,0.25,0.17,0.48,0.34,0.67c-0.73-0.24-1.5-0.25-2.24-0.03c-0.72,0.15-1.41,0.42-2.12,0.59c-0.91,0.21-1.94,0.3-2.56,1.02
	c-0.7-2.17-1.26-4.38-1.67-6.62c-0.34-2.04-0.43-4.16-1.25-6.05c-0.33-0.77-0.76-1.48-1.16-2.2c-2.1-3.83-3.13-8.17-4.13-12.44
	c-0.45-2.03-0.56-4.12-0.32-6.18c0.14-0.94,0.23-1.89,0.25-2.85c-0.06-1.01-0.19-2.01-0.38-2.99c-0.42-2.9-0.23-5.85,0.58-8.67
	c0.75-2.61,1.41-5.36,2.99-7.55C71.36,222.24,74.66,221.04,77.31,221z"/>
<g class="st11">
	<path d="M75.7,184.58c-1.54-1.92-3.52-3.65-5.94-4.13c-1.97-0.39-4.01,0.08-6.01-0.08c-1.77-0.14-3.47-0.77-5.24-1
		c-1.6-0.17-3.21-0.11-4.79,0.18c-1.5,0.22-2.97,0.62-4.36,1.21c-0.75,0.33-1.48,0.74-2.15,1.21c1.25-0.47,2.54-0.8,3.85-1
		c1.58-0.29,3.19-0.35,4.79-0.18c1.76,0.23,3.46,0.86,5.24,1c2,0.16,4.04-0.32,6.01,0.08c2.42,0.48,4.41,2.21,5.94,4.13
		c1.43,1.79,2.62,4.08,2.02,6.28c-0.32,1.16-1.06,2.17-1.26,3.36c-0.21,1.23-0.25,1.68-1.08,2.74c-1.06,1.37-2.34,2.55-3.79,3.5
		c0.4-0.19,0.8-0.37,1.19-0.57c2.06-1.05,3.85-2.53,5.26-4.35c0.82-1.06,0.87-1.52,1.08-2.75c0.2-1.19,0.94-2.21,1.26-3.36
		C78.32,188.66,77.13,186.37,75.7,184.58z"/>
	<path d="M66.35,203.54c0.21-0.22,0.45-0.42,0.7-0.6c-1.19,0.57-2.45,1.08-3.36,2.02c-1.14,1.18-1.56,2.89-1.61,4.53
		c-0.05,1.64,0.23,3.27,0.27,4.91c0.05,2.18-0.32,4.35-1.09,6.39c-0.68,1.81-1.67,3.49-2.44,5.26c-0.89,2.06-1.49,4.23-2.3,6.33
		c-2.58,6.61-7.16,12.27-13.12,16.19c-0.03,0.07-0.06,0.14-0.09,0.21c7.26-3.87,12.89-10.19,15.87-17.82
		c0.81-2.1,1.41-4.27,2.3-6.33c0.77-1.77,1.76-3.45,2.44-5.26c0.77-2.04,1.14-4.21,1.09-6.39c-0.04-1.64-0.32-3.27-0.27-4.9
		C64.79,206.43,65.21,204.72,66.35,203.54z"/>
</g>
<path class="st7" d="M338.52,384.82c-0.6,0.68-1.63,0.82-2.56,0.91c-1.2,0.16-2.42,0.19-3.63,0.07c-1.43-0.2-2.29,0.57-3.6-0.02
	c-0.79-0.36-2.01,0.36-2.81,0c-1.09-0.49-4.84-0.59-5.5-1.55c-0.66-0.96-0.59-2.46,0.45-3.03c0.3-0.13,0.6-0.24,0.92-0.34
	c1.75-0.66,5.3-5.6,7.16-5.86c0.92-0.04,1.84,0.16,2.65,0.59c1.84,0.77,5.08,1.37,5.88,3.32
	C338.11,380.43,339.82,383.34,338.52,384.82z"/>
<path class="st7" d="M351.47,385.4c0.59,0.72,1.61,0.87,2.53,0.96c1.19,0.17,2.39,0.2,3.59,0.07c1.42-0.21,3.15,1.01,4.44,0.39
	c0.78-0.38,1.99-0.18,2.77-0.56c1.07-0.52,6.12,0.64,6.78-0.37c0.65-1.01,0.59-2.61-0.45-3.21c-0.29-0.14-0.6-0.26-0.91-0.36
	c-1.73-0.7-7.45-7.05-9.3-7.32c-0.91-0.04-1.82,0.17-2.62,0.62c-1.82,0.81-5.02,1.45-5.81,3.52
	C351.88,380.75,350.19,383.83,351.47,385.4z"/>
<path class="st7" d="M357.09,272.84c0.57,1.08,1.06,2.19,1.48,3.33c5.01,13.16,5.43,27.54,5.64,41.61
	c-0.02,2.29,0.11,4.57,0.39,6.84c0.21,1.44,0.54,2.89,0.33,4.33c-0.18,1.24-0.78,2.47-0.54,3.71c0.11,0.56,0.37,1.07,0.48,1.62
	c0.08,0.61,0.06,1.23-0.05,1.83l-0.67,4.96c-0.38,2.83-1.27,5.55-1.22,8.4c0.03,1.95,0.07,3.9,0.29,5.83
	c0.22,1.96,0.63,3.91,0.65,5.89c0.02,1.48-0.19,2.95-0.32,4.42c-0.19,2.08-0.23,4.17-0.13,6.26c0.08,1.61,0.26,3.28,1.12,4.64
	c-0.96,1.37-1.92,2.6-3.46,3.27c-3.13,1.36-6.73,0.9-10.12,0.41c0.19-0.62,0.48-1.32,0.21-1.91c-0.16-0.29-0.35-0.55-0.58-0.79
	c-0.74-1.04-1.25-2.23-1.51-3.48c-0.41-1.48-0.82-3.08,0.02-4.5c0.29-0.51,0.42-1.09,0.37-1.67c-0.7-9.33-2.79-18.98-0.87-28.14
	c0.21-0.98,0.45-1.95,0.57-2.94c0.1-1.43,0.12-2.86,0.05-4.29l-0.04-1.99c-0.1-2.12-0.01-4.3-0.44-6.4
	c-0.31-1.5-0.88-3.01-0.17-4.55c0.31-0.71,0.27-1.53-0.11-2.21c-1.49-2.58-2.68-5.32-3.57-8.17c-0.18-0.8-0.43-1.57-0.75-2.33
	c-0.43-0.79-0.93-1.55-1.48-2.26c-1.68-2.41-2.68-5.21-3.67-7.98c0.11-0.25,0.02-0.61-0.25-0.57c-0.27,0.07-0.5,0.24-0.65,0.48
	c-1.35,1.8-1.46,4.2-1.52,6.44c-0.1,2.08-0.07,4.17,0.11,6.25c0.12,1.09,0.31,2.17,0.41,3.26c0.13,2.03,0.1,4.08-0.1,6.11
	l-0.69,9.99c-0.09,0.83-0.04,1.66,0.15,2.47c0.44,1.4,0.66,2.86,0.64,4.33c-0.18,6.03,0.34,12.07,1.57,17.98
	c0.34,1.63,0.72,3.25,1.01,4.9c0.67,3.87,0.77,7.81,0.86,11.74c0.05,2.41,0.09,4.91-0.86,7.13c-0.37,0.68-0.65,1.42-0.82,2.18
	c0,0.39-0.06,0.78-0.16,1.16c-0.28,0.72-1.12,1.02-1.89,1.19c-1.43,0.31-2.89,0.41-4.35,0.31c-0.34,0-0.68-0.08-0.99-0.22
	c-0.54-0.28-0.83-0.87-1.24-1.32c-0.89-0.96-2.37-1.26-3.18-2.29c-1.01-1.29-0.59-3.16,0.02-4.68c0.6-1.52,1.35-3.18,0.83-4.73
	c-0.61-1.83-2.79-2.82-3.37-4.65c1.66-7.42-2.42-15.09-2.07-22.68c0.08-1.77,0.39-3.52,0.4-5.3c0.02-4.56-1.98-9-1.65-13.55
	c0.83-11.56-3.14-23.1-4.82-34.57c-0.32-1.71-0.44-3.45-0.35-5.19c0.25-2.87,1.59-5.54,3.21-7.94c1.16-1.72,2.55-3.39,4.47-4.2
	c1.58-0.66,3.35-0.66,5.06-0.64c4.28,0.03,8.55,0.06,12.83,0.14c2.91-0.04,5.82,0.22,8.67,0.77
	C352.58,271.44,354.74,272.51,357.09,272.84z"/>
<path class="st12" d="M288.64,220.12c-0.43-2.07,0.38-4.29-0.25-6.3c-0.23-0.73-0.79-1.48-1.56-1.46c-0.75,0.02-1.26,0.74-1.92,1.09
	c-1.07,0.55-2.38,0.05-3.45-0.5c-1.07-0.55-2.27-1.18-3.43-0.85c-0.14,0.72,0.35,1.4,0.89,1.91c0.59,0.44,1.08,1,1.44,1.65
	c0.18,0.7,0.24,1.41,0.2,2.13c0.12,1.64,1.17,3.05,2.23,4.33c1.7,2.06,3.5,4.02,5.4,5.9c0,0,2.88-3.52,2.83-4.14
	c-0.05-0.58-1.02-1.12-1.38-1.59C289.14,221.64,288.81,220.9,288.64,220.12z"/>
<path class="st12" d="M370.59,262.38c0.24,0.65,0.42,1.32,0.54,2.01c0.7,3.51,1.14,7.06,1.58,10.62c0.12,0.95,0.23,1.9,0.27,2.85
	c0.12,2.27-0.33,4.53-1.31,6.56c-1,2.04-2.7,3.62-4.77,4.43c-0.64,0.23-1.53,0.28-1.8-0.36c-0.1-0.29-0.1-0.61,0.01-0.91
	c0.25-0.95,0.76-1.8,1.1-2.72c0.49-1.37,0.57-2.87,0.23-4.29c-0.13-0.54-0.41-1.15-0.94-1.26c0.27,1.25,0.04,2.57-0.62,3.65
	c-0.15,0.3-0.41,0.53-0.73,0.63c-0.45,0.05-0.88-0.24-1.02-0.68c-0.13-0.44-0.16-0.9-0.08-1.35c0.17-2.28,0.51-4.54,1.01-6.77
	c0.59-2.44,1.54-4.86,1.47-7.38c-0.05-2.28-0.94-4.52-0.69-6.79c0-0.14,0.05-0.28,0.13-0.39c0.08-0.08,0.17-0.14,0.28-0.17
	c0.62-0.26,1.25-0.48,1.9-0.65c0.38-0.1,1.69-0.57,2.06-0.36c0.3,0.17,0.39,1.19,0.54,1.53
	C369.99,261.19,370.34,261.76,370.59,262.38z"/>
<path class="st12" d="M326,195c4.97,0,9-4.03,9-9c0-4.97-4.03-9-9-9s-9,4.03-9,9C317,190.97,321.03,195,326,195z"/>
<path class="st12" d="M334.68,192.61c0,0.59,0.05,1.18,0.14,1.77c0.13,0.59,0.31,1.17,0.54,1.73c0.31,0.91,0.74,1.77,1.29,2.55
	c0.56,0.79,1.4,1.34,2.34,1.53c-6.32,2.98-13.07,4.94-20,5.81c1.09-0.73,2-1.7,2.65-2.85c0.35-0.73,0.58-1.51,0.7-2.32
	c0.59-3.36,0.29-6.82-0.87-10.02c-0.11-0.32-0.23-0.7-0.01-0.96c0.09-0.1,0.21-0.17,0.33-0.21c2.75-1.17,5.71-1.72,8.7-1.63
	c0.76,0,1.52,0.04,2.28,0.09c0.41,0.03,1.31-0.06,1.64,0.24c0.39,0.36,0.19,1.47,0.21,1.96L334.68,192.61z"/>
<path class="st13" d="M338.95,199.78c-2.8-3.56-7.69-4.77-11.85-2.93c-4.41,2.09-6.58,7.1-10.45,10.04
	c-0.88,0.65-1.82,1.23-2.81,1.71c-0.58,0.32-1.2,0.56-1.85,0.72c-0.73,0.16-1.48,0.14-2.2,0.31c-1.37,0.4-2.55,1.3-3.28,2.52
	c-0.36,0.64-0.77,1.25-1.2,1.84c-0.4,0.48-0.91,0.86-1.34,1.32c-1.54,1.64-1.96,4-2.31,6.22c-1.2,1.26-2.52,2.41-3.93,3.44
	c-0.44,0.34-0.94,0.61-1.46,0.8c-1.35,0.44-2.85-0.12-4.01-0.95c-1.15-0.83-2.1-1.92-3.24-2.77c-1.05,1.48-2.14,2.97-3.26,4.41
	c-0.17,0.27-0.43,0.48-0.73,0.59c-0.21,0.7,0.29,1.42,0.67,2.05l2.02,3.36c0.67,1.22,1.48,2.36,2.44,3.39
	c0.96,1.03,2.28,1.66,3.69,1.78c0.89-0.01,1.77-0.18,2.6-0.5c3.85-1.28,7.38-3.33,11.04-5.07c0.66-0.38,1.4-0.59,2.17-0.63
	c0.78-0.02,1.48,0.48,1.71,1.22c0.42,2.1,0.84,4.2,1.41,6.26c0.54,1.95,1.05,3.9,1.52,5.87c0.31,1.2,0.54,2.43,0.67,3.66
	c0.06,0.7,0.07,1.41,0.07,2.11l0.08,8.51c0.01,0.92-0.52,1.49-0.92,2.31c-0.62,1.28-0.72,2.75-0.26,4.09
	c0.23,0.66,0.58,1.28,0.84,1.93c0.61,1.58,0.59,3.33,0.55,5.02l-0.07,3.88c-0.02,0.16,0.01,0.32,0.09,0.47
	c0.24,0.37,0.82,0.15,1.18-0.1l1.83-1.26c2.45,0.33,4.93,0.45,7.4,0.35c7.03-0.1,14.06,0.18,21.07,0.66
	c2.34,0.16,4.76,0.34,6.97-0.43c1.12-0.39,2.16-1.02,3.3-1.34c0.47-0.07,0.92-0.26,1.31-0.54c0.64-0.59,0.47-1.62,0.21-2.45
	c-0.23-0.72-0.49-1.44-0.78-2.14c-0.3-0.65-0.54-1.32-0.73-2c-0.35-1.55-0.01-3.34-0.98-4.6c-2.18-2.82-0.64-7.17-1.55-10.6
	c-0.3-1.11-0.73-2.18-1.01-3.3c-0.17-0.7-0.28-1.42-0.39-2.13c-0.29-1.54-0.43-3.11-0.42-4.68c0.03-0.78,0.13-1.57,0.23-2.35
	l0.69-5.41c0.86,1.6,1.47,3.33,1.78,5.12c0.63,2.67,1.4,5.31,2.32,7.9c0.52,1.56,1.04,3.12,1.61,4.67c0.36,0.88,0.63,1.79,0.82,2.72
	c0.12,0.75,0.13,1.52,0.21,2.27c0.19,1.62,0.76,3.17,1.67,4.53c0.17,0.32,0.45,0.56,0.78,0.69c0.23,0.04,0.46,0.03,0.68-0.03
	c2.44-0.48,4.81-1.29,7.03-2.41c0.47-0.19,0.88-0.51,1.19-0.92c0.6-0.96-0.07-2.17-0.36-3.26c-0.31-1.17-0.24-2.58-1.17-3.37
	c-3.24-2.74-1.63-8.29-3.26-12.19c-0.29-0.68-0.62-1.35-0.86-2.05c-0.19-0.54-0.32-1.09-0.46-1.64c-1.13-4.55-2.35-9.07-3.64-13.58
	c-1.34-4.67-1.2-9.54-2.88-14.1c-0.32-0.96-0.73-1.88-1.23-2.75c-0.57-0.91-1.33-1.69-2.24-2.28c-2.45-1.6-4.92-2.97-7.79-3.55
	C344.99,199.68,341.88,199.77,338.95,199.78z"/>
<path class="st7" d="M317.6,188.13c-1.25-0.67-0.92-2.49-1.13-3.88c-0.44-2.87-3.7-4.57-4.47-7.38c0.88,0.11,1.77-0.02,2.59-0.36
	c0.16-0.93-0.03-1.89-0.52-2.69c2.68-1.08,4.86-3.21,7.58-4.19c3.43-1.23,7.24-0.47,10.7,0.67c1.73,0.57,3.52,1.31,4.56,2.79
	c1.14,1.62,1.13,3.76,1.07,5.75c-0.1,3.11-0.22,6.33-1.61,9.12c-1.77,3.55-6.8,6.83-10.95,5.87c-1.73-0.4-2.23-1.48-2.96-2.97
	c-0.45-0.93-0.62-2-1.64-2.49C319.82,187.9,318.61,188.67,317.6,188.13z"/>
<g class="st11">
	<path d="M355.61,254.29c0.01,0.24,0.02,0.49,0.02,0.74C355.62,254.78,355.61,254.54,355.61,254.29z"/>
	<path d="M315.53,263.57c0.61,1.59,0.59,3.35,0.55,5.05c-0.01,0.45-0.02,0.89-0.02,1.34c-0.04-0.92-0.22-1.83-0.53-2.69
		c-0.25-0.66-0.61-1.28-0.84-1.94c-0.39-1.17-0.38-2.43,0.04-3.59C314.96,262.36,315.29,262.95,315.53,263.57z"/>
</g>
<g class="st11">
	<path d="M314.48,174.97L314.48,174.97c-0.08-0.57-0.24-1.13-0.47-1.63c0.14-0.08,0.28-0.16,0.42-0.24
		C314.54,173.71,314.56,174.35,314.48,174.97z"/>
</g>
<path class="st6" d="M24,157l-2.18-1.98C14.1,147.84,9,143.19,9,137.39c-0.04-2.23,0.82-4.38,2.37-5.96
	c1.55-1.58,3.67-2.46,5.88-2.43c2.61,0.01,5.07,1.19,6.75,3.2c1.68-2.02,4.14-3.19,6.75-3.2c2.2-0.03,4.32,0.85,5.88,2.43
	c1.55,1.58,2.41,3.73,2.37,5.96c0,5.8-5.1,10.45-12.82,17.62L24,157z"/>
<path class="st2" d="M28,152l-2.18-1.98C18.1,142.84,13,138.19,13,132.39c-0.04-2.23,0.82-4.38,2.37-5.96s3.67-2.46,5.88-2.43
	c2.61,0.01,5.07,1.19,6.75,3.2c1.68-2.02,4.14-3.19,6.75-3.2c2.2-0.03,4.32,0.85,5.88,2.43s2.41,3.73,2.37,5.96
	c0,5.8-5.1,10.45-12.82,17.62L28,152z"/>
</svg>
