<?xml version="1.0" encoding="utf-8"?>
<!-- Generator: Adobe Illustrator 24.2.3, SVG Export Plug-In . SVG Version: 6.00 Build 0)  -->
<svg version="1.1" id="Слой_1" xmlns="http://www.w3.org/2000/svg" xmlns:xlink="http://www.w3.org/1999/xlink" x="0px" y="0px"
	 viewBox="0 0 540 387.5" style="enable-background:new 0 0 540 387.5;" xml:space="preserve">
<style type="text/css">
	.st0{fill:#F2F2F2;}
	.st1{fill:#3F3D56;}
	.st2{fill:#222F65;}
	.st3{fill:none;stroke:#3F3D56;stroke-width:2;}
	.st4{opacity:0.1;enable-background:new    ;}
	.st5{fill:#2F2E41;}
	.st6{fill:#9F616A;}
	.st7{fill:#D0CDE1;}
	.st8{fill-rule:evenodd;clip-rule:evenodd;fill:#FFFFFF;}
</style>
<path class="st0" d="M202.65,377.56c96.51,0,174.74-80.07,174.74-178.85c0-98.77-78.23-178.85-174.74-178.85
	S27.91,99.94,27.91,198.72C27.91,297.49,106.14,377.56,202.65,377.56z"/>
<path class="st1" d="M230.69,225.99c-38.48,60.7-27.93,137.91-27.93,137.91s72.92-21.21,111.4-81.92
	c38.48-60.71,27.93-137.91,27.93-137.91S269.17,165.28,230.69,225.99z"/>
<path class="st2" d="M202.64,362.66c0,0-0.94-0.15-2.68-0.51c-1.38-0.29-3.29-0.69-5.61-1.26c-20.79-4.99-76.06-21.87-112.19-66.24
	c-45.22-55.56-43.32-133.19-43.32-133.19s69.15,11.44,114.71,61.34c1.97,2.14,3.9,4.37,5.76,6.67
	c39.35,48.35,43.02,113.39,43.31,129.47C202.67,361.35,202.64,362.66,202.64,362.66z"/>
<path class="st3" d="M174.61,225.99c38.48,60.7,27.93,137.91,27.93,137.91s-72.92-21.21-111.4-81.92
	c-38.48-60.71-27.93-137.91-27.93-137.91S136.13,165.28,174.61,225.99z"/>
<path class="st4" d="M202.65,360.25c-1.02,1.26-1.92,2.34-2.66,3.22c-1.64,1.92-2.57,2.92-2.57,2.92s-1.13-1.46-3.03-4.18
	c-10.42-14.91-43.95-67.9-41.36-129.12c0.14-3.21,0.37-6.38,0.69-9.52c1.97,2.15,3.88,4.38,5.75,6.69
	C198.7,278.79,202.36,344.1,202.65,360.25z"/>
<path class="st2" d="M260.76,237.57c-3.07,72.37-55.77,128.82-55.77,128.82s-47.73-60.88-44.66-133.24
	c3.07-72.37,55.77-128.82,55.77-128.82S263.83,165.2,260.76,237.57z"/>
<path class="st3" d="M205.08,363.9L216,106.81"/>
<path class="st1" d="M270,387.5c149.12,0,270-7.78,270-17.39s-120.88-17.39-270-17.39c-149.12,0-270,7.78-270,17.39
	S120.88,387.5,270,387.5z"/>
<path class="st1" d="M44.9,363.9v-69.55V363.9z"/>
<path class="st3" d="M44.9,363.9v-69.55"/>
<path class="st1" d="M44.9,304.29c5.36,0,9.71-4.45,9.71-9.94s-4.35-9.94-9.71-9.94s-9.71,4.45-9.71,9.94S39.54,304.29,44.9,304.29z
	"/>
<path class="st1" d="M44.9,337.82c0,0-1.35-30.59-29.12-27.04L44.9,337.82z"/>
<path class="st1" d="M276.67,250.88V57.13V250.88z"/>
<path class="st3" d="M276.67,250.88V57.13"/>
<path class="st1" d="M276.67,72.04c7.37,0,13.35-6.12,13.35-13.66s-5.98-13.66-13.35-13.66c-7.37,0-13.35,6.12-13.35,13.66
	S269.3,72.04,276.67,72.04z"/>
<path class="st1" d="M276.67,113.02c0,0-1.86-41.72-40.04-36.87L276.67,113.02z"/>
<path class="st5" d="M434.77,144.07l-11.38,21.9c0,0-82.28,16.09-71.77,41.12c10.5,25.03,22.32,61.68,28.45,60.79
	c6.13-0.89,39.83-20.56,41.14-26.37c1.31-5.81-30.2-33.08-30.2-33.08l52.08-10.28c0,0,7.44,35.76-2.19,60.34
	c-9.63,24.58-15.32,91.18-8.75,92.08c6.56,0.89,23.19,6.26,30.63,1.34c7.44-4.92,10.94-112.64,10.94-112.64s15.75-70.62,6.13-78.67
	S434.77,144.07,434.77,144.07z"/>
<path class="st5" d="M452.56,340.62c0,0-10.17-5.49-12.31-1.1c0,0,1.61,13.19-4.82,14.84c-6.42,1.65-9.1,13.19,0,14.29
	c9.1,1.1,14.98-2.2,18.19-2.2s0-11.54,0-11.54L452.56,340.62z"/>
<path class="st5" d="M404.05,250.68c0,0-11.08-3.18-12.27,1.6c0,0,4.28,12.59-1.66,15.6c-5.94,3.01-6.19,14.91,2.94,14.01
	c9.13-0.9,14.21-5.41,17.35-6.11c3.14-0.7-2.37-11.32-2.37-11.32L404.05,250.68z"/>
<path class="st6" d="M459.18,66.89c0,0,0.43,16.68-2.59,18.03c-3.03,1.35,16.86,9.47,16.86,9.47l3.46-6.31
	c0,0-3.89-22.54-3.03-24.34C474.74,61.93,459.18,66.89,459.18,66.89z"/>
<path class="st5" d="M465.98,70.79c14.74,0,26.7-12.23,26.7-27.32s-11.95-27.32-26.7-27.32c-14.74,0-26.7,12.23-26.7,27.32
	S451.23,70.79,465.98,70.79z"/>
<path class="st5" d="M468.4,28.57c6.03,0,10.92-5,10.92-11.18c0-6.17-4.89-11.18-10.92-11.18c-6.03,0-10.92,5-10.92,11.18
	C457.48,23.56,462.37,28.57,468.4,28.57z"/>
<path class="st5" d="M453.71,11.18c0-5.72,4.25-10.52,9.85-11.12C463.17,0.02,462.79,0,462.41,0c-6.07,0-10.99,5-10.99,11.18
	c0,6.17,4.92,11.18,10.99,11.18c0.38,0,0.76-0.02,1.14-0.06C457.96,21.7,453.71,16.9,453.71,11.18z"/>
<path class="st6" d="M464.76,75.76c10.05,0,18.2-8.34,18.2-18.63s-8.15-18.63-18.2-18.63s-18.2,8.34-18.2,18.63
	S454.71,75.76,464.76,75.76z"/>
<path class="st7" d="M478.42,81.73c0,0-15.72,4.89-23.58,0c-7.86-4.89-26.64,9.34-29.69,15.57c-3.06,6.23,11.35,12.46,11.35,12.46
	s-4.11,12.03-3.27,18.02c0.87,6.23-0.66,18.91-0.66,18.91s38.58,25.9,47.16,14.24c1.31-1.78,12.23-43.6,12.23-43.6l15.28-15.57
	c0,0-9.61-14.24-15.28-15.57C486.28,84.85,478.42,81.73,478.42,81.73z"/>
<path class="st6" d="M372.46,172.64c0,0-29.43,15.94-23.37,20.5c6.06,4.56,30.73-17.77,30.73-17.77L372.46,172.64z"/>
<path class="st6" d="M488.94,161.38c0,0-13.34-9.58-15.49-4.79c-2.15,4.79,14.61,15.58,18.14,11.36
	C495.11,163.73,488.94,161.38,488.94,161.38z"/>
<path class="st7" d="M499.67,95.63l7.78,4.95c0,0,26.37,37.83,17.29,46.38c-9.08,8.56-32.43,25.67-32.43,25.67
	s-7.78-11.71-5.19-12.16c2.59-0.45,23.35-18.46,23.35-18.46l-18.16-35.12L499.67,95.63z"/>
<path class="st7" d="M429.79,94.39l-5.66,2.25l-14.81,27.43l-39.21,49.02c0,0,5.23,8.54,9.58,6.75c4.36-1.8,37.03-39.58,37.03-39.58
	l21.35-34.18L429.79,94.39z"/>
<path class="st5" d="M466.58,45.95c10.39,0,18.81-5,18.81-11.18c0-6.17-8.42-11.18-18.81-11.18c-10.39,0-18.81,5-18.81,11.18
	C447.78,40.95,456.2,45.95,466.58,45.95z"/>
<rect x="342.2" y="276.96" class="st2" width="86.16" height="88.18"/>
<path class="st8" d="M401.5,338.33c9.02,0,14.72-7.85,14.72-20.31c0-16.95-12.69-28.63-30.99-28.63c-19.04,0-32.11,13.15-32.11,32.3
	c0,19.62,12.8,32.27,32.8,32.28c3.47,0.02,6.92-0.37,10.3-1.14c1.37-0.34,2.23-1.74,1.93-3.15c-0.3-1.41-1.64-2.32-3.03-2.05
	c-2.95,0.53-5.94,0.79-8.94,0.77c-16.45,0-27.02-10.32-27.02-26.5c0-15.82,10.68-27,25.67-27c15.15,0,25.41,9.37,25.41,23.37
	c0,8.78-2.89,14.43-7.44,14.43c-2.63,0-4.09-1.63-4.09-4.34v-21.74h-6.56v4.67h-0.66c-1.51-3.41-4.95-5.5-8.99-5.5
	c-7.87,0-13.26,6.54-13.26,15.94c0,9.79,5.36,16.36,13.38,16.36c4.5,0,7.85-2.13,9.48-6.04h0.66
	C393.37,335.81,396.88,338.33,401.5,338.33z M383.84,331.87c-4.65,0-7.51-3.77-7.51-9.99c0-6.24,2.81-9.9,7.59-9.9
	c4.82,0,7.9,3.78,7.9,9.9C391.82,328,388.73,331.87,383.84,331.87z"/>
</svg>
