<?xml version="1.0" encoding="utf-8"?>
<!-- Generator: Adobe Illustrator 24.2.3, SVG Export Plug-In . SVG Version: 6.00 Build 0)  -->
<svg version="1.1" id="Слой_1" xmlns="http://www.w3.org/2000/svg" xmlns:xlink="http://www.w3.org/1999/xlink" x="0px" y="0px"
	 viewBox="0 0 480 315" style="enable-background:new 0 0 480 315;" xml:space="preserve">
<style type="text/css">
	.st0{fill:#F2F2F2;}
	.st1{fill:#FF6584;}
	.st2{fill:#3F3D56;}
	.st3{fill:#111B47;}
	.st4{fill:#2F2E41;}
	.st5{fill:#FFB8B8;}
	.st6{fill-rule:evenodd;clip-rule:evenodd;fill:#3F3D56;}
	.st7{opacity:0.1;enable-background:new    ;}
	.st8{fill:#FFFFFF;}
	.st9{fill-rule:evenodd;clip-rule:evenodd;fill:#57B894;}
</style>
<path class="st0" d="M99.08,136.53C74.78,136.64,55,137,55,137s23.51-30.91,43.99-19.46C119.47,129,143,136.6,143,136.6
	S123.38,136.42,99.08,136.53z"/>
<path class="st1" d="M371,146c2.76,0,5-2.24,5-5c0-2.76-2.24-5-5-5s-5,2.24-5,5C366,143.76,368.24,146,371,146z"/>
<path class="st2" d="M333.99,220.31l37.99-43.62l1.17,1.02l-37.99,43.62L333.99,220.31z"/>
<path class="st2" d="M373,185c4.42,0,8-3.58,8-8c0-4.42-3.58-8-8-8s-8,3.58-8,8C365,181.42,368.58,185,373,185z"/>
<path class="st2" d="M349.29,204c0,0,15.36-19.57-4.29-33L349.29,204z"/>
<path class="st2" d="M94.58,238.4c28.15,52.19,87.89,74.6,87.89,74.6s14.1-62.21-14.04-114.4S80.53,124,80.53,124
	S66.43,186.21,94.58,238.4z"/>
<path class="st3" d="M113.62,221.46c50.81,30.66,70.38,91.55,70.38,91.55s-62.81,11.19-113.62-19.47C19.57,262.88,0,201.99,0,201.99
	S62.81,190.8,113.62,221.46z"/>
<path class="st2" d="M315.19,221.73C264.11,251.97,244,312.75,244,312.75s62.72,11.76,113.81-18.48
	c51.09-30.24,71.19-91.02,71.19-91.02S366.28,191.49,315.19,221.73z"/>
<path class="st3" d="M333.74,240.22C305.13,292.14,245.21,314,245.21,314s-13.55-62.31,15.05-114.22
	c28.61-51.91,88.53-73.78,88.53-73.78S362.34,188.31,333.74,240.22z"/>
<path class="st4" d="M229.88,98.04c-6.01-5.44-6.86-14.59-1.94-21.04c-0.31,0.29-0.62,0.6-0.91,0.93
	c-5.78,6.39-5.28,16.26,1.11,22.04c6.39,5.78,16.26,5.28,22.03-1.11c0.29-0.33,0.57-0.66,0.83-1
	C245.08,103.4,235.9,103.48,229.88,98.04z"/>
<path class="st4" d="M215.5,109c17.95,0,32.5-14.55,32.5-32.5c0-17.95-14.55-32.5-32.5-32.5S183,58.55,183,76.5
	C183,94.45,197.55,109,215.5,109z"/>
<path class="st5" d="M206.24,118.03l0.97-2.51l-17.74,14.84l-21.44,11.95c0,0-10.91-41.63-11.69-42.4
	c-0.78-0.77-14.81-30.07-21.05-16.19s12.08,21.97,12.08,21.97s0.58,50.69,19.29,50.3c18.71-0.39,41.9-17.15,42.29-18.69
	C209.36,135.76,206.24,118.03,206.24,118.03z"/>
<path class="st5" d="M211.5,110c10.77,0,19.5-8.73,19.5-19.5c0-10.77-8.73-19.5-19.5-19.5S192,79.73,192,90.5
	C192,101.27,200.73,110,211.5,110z"/>
<path class="st5" d="M214.88,104.75c0,0,5.06,6.57,3.51,7.34c-1.56,0.77-10.52,1.16-15.97,7.73c-5.45,6.57,6.62,23.18,6.62,23.18
	L255,112.48l-18.7-6.18c0,0-12.85-6.95-12.46-14.3L214.88,104.75z"/>
<path class="st4" d="M277,315h-51.63c-2.92-21.34-4.28-40.89-4.28-40.89s-0.75,19.67-2.76,40.89H152
	c9.4-62.84,53.98-130.98,53.98-130.98s0.39-9.28,1.55-10.83c1.16-1.54-6.59-1.93-10.08-13.53c-2.13-7.08-0.22-11.72,1.6-14.25
	c0.62-0.91,1.39-1.72,2.27-2.38c0,0,0.78-8.12,0-9.28c-0.1-0.15,0.67-0.68,2.08-1.5c1.18-0.68,2.81-1.55,4.76-2.56
	c11.17-5.78,32.79-16,40.19-19.49c1.62-0.77,2.57-1.21,2.57-1.21l13.18,4.64c10.46,3.48,10.46,25.52,10.46,25.52l-0.59,0.9
	l-15.81,23.9l-9.17,13.87c2.33,1.54-2.32,11.21-2.32,11.21s6.62,9.5,12.01,23.99c3.05,8.07,5.12,16.47,6.19,25.03
	c0.68,5.54,0.81,11.14,0.4,16.71C263.83,273.4,270.22,296.04,277,315z"/>
<path class="st5" d="M263.95,115.43c-0.86-0.49-1.89-0.57-2.81-0.22c-0.92,0.35-1.65,1.09-1.98,2.03c-1.15,3.21-2.32,9.9-1.91,23.8
	c0.77,25.57,1.15,43.01,1.15,43.01v38.75c0,0-16.85,37.2-7.66,37.2c9.19,0,15.7-29.45,15.7-29.45s8.43-44.56,5.74-52.31
	C272.19,178.24,279.75,124.71,263.95,115.43z"/>
<path class="st4" d="M209.5,85c9.11,0,16.5-5.15,16.5-11.5c0-6.35-7.39-11.5-16.5-11.5S193,67.15,193,73.5
	C193,79.85,200.39,85,209.5,85z"/>
<path class="st4" d="M236,64c8.84,0,16-7.16,16-16c0-8.84-7.16-16-16-16s-16,7.16-16,16C220,56.84,227.16,64,236,64z"/>
<path class="st4" d="M247,59.38c-8.32,0-15.25-6.25-15.94-14.38c-0.04,0.43-0.06,0.87-0.06,1.31c0,8.67,7.16,15.69,16,15.69
	s16-7.03,16-15.69c0-0.44-0.02-0.88-0.06-1.31C262.25,53.13,255.32,59.38,247,59.38z"/>
<path class="st5" d="M230.39,87.02c0.73-0.17,1-1.66,0.6-3.33c-0.4-1.67-1.31-2.87-2.04-2.7c-0.73,0.17-1,1.67-0.6,3.33
	C228.75,85.98,229.66,87.19,230.39,87.02z"/>
<path class="st0" d="M230,87c0.55,0,1-0.45,1-1c0-0.55-0.45-1-1-1s-1,0.45-1,1C229,86.55,229.45,87,230,87z"/>
<path class="st6" d="M40,146.5c0,3.59,2.91,6.5,6.5,6.5c3.59,0,6.5-2.91,6.5-6.5c0-3.59-2.91-6.5-6.5-6.5S40,142.91,40,146.5z
	 M41.08,146.5c0-2.99,2.43-5.42,5.42-5.42c2.99,0,5.41,2.43,5.42,5.42c0,2.99-2.43,5.42-5.42,5.42S41.08,149.49,41.08,146.5z"/>
<path class="st6" d="M304,107h14V93h-14V107z M316.92,105.92h-11.85V94.08h11.85V105.92z"/>
<path class="st0" d="M436.08,179.53C411.78,179.64,392,180,392,180s23.51-30.91,43.99-19.46C456.47,172,480,179.6,480,179.6
	S460.38,179.42,436.08,179.53z"/>
<path class="st0" d="M361.08,74.53C336.78,74.64,317,75,317,75s23.51-30.91,43.99-19.46C381.47,66.99,405,74.6,405,74.6
	S385.38,74.42,361.08,74.53z"/>
<path class="st0" d="M131.36,88.13L75.24,59.16c-3.83-1.98-5.34-6.7-3.37-10.55L85.09,22.8c0.39-0.76,1.07-1.32,1.88-1.56
	l44.23-12.95c3.67-1.08,7.54,0.92,8.81,4.55l14.53,41.62c0.73,2.1,0.57,4.41-0.44,6.39l-12.24,23.9c-0.95,1.85-2.59,3.24-4.56,3.88
	C135.34,89.26,133.2,89.08,131.36,88.13z"/>
<path class="st7" d="M133.35,78.58L76.81,54.33c-1.82-0.94-0.11,0.51,0.82-1.32L84.74,24L154,59.77l-17.51,21.74
	C135.55,83.34,135.17,79.52,133.35,78.58z"/>
<path class="st3" d="M86.16,61.64c-4.02-2.07-5.6-7-3.54-11.02l19.04-37.03c2.07-4.02,7-5.6,11.02-3.54l37.03,19.04
	c4.02,2.07,5.6,7,3.54,11.02l-19.04,37.03c-2.07,4.02-7,5.6-11.02,3.54L86.16,61.64z"/>
<path class="st7" d="M145,55.59L130.46,84L79,57.41L93.54,29l19.33,25.79L145,55.59z"/>
<path class="st0" d="M112.25,56.66L87.29,23.6c-0.31-0.42-0.82-0.64-1.34-0.6c-0.52,0.04-0.98,0.35-1.22,0.81L70.52,51.38
	c-0.57,1.11-0.68,2.41-0.3,3.6c0.38,1.19,1.23,2.18,2.34,2.76l61.89,31.74c1.12,0.57,2.41,0.68,3.61,0.3
	c1.19-0.38,2.19-1.22,2.76-2.34l13.96-27.08c0.29-0.56,0.27-1.24-0.05-1.78c-0.32-0.55-0.91-0.89-1.54-0.9L112.25,56.66z"/>
<path class="st0" d="M107.41,13.33l14.43,7.42l-1.05,2.04l-14.43-7.42L107.41,13.33z"/>
<path class="st0" d="M102.43,20.16l42.84,22.03l-0.6,1.17l-42.84-22.03L102.43,20.16z"/>
<path class="st0" d="M100.4,24.1l42.84,22.03l-0.6,1.17L99.8,25.27L100.4,24.1z"/>
<path class="st0" d="M98.38,28.03l42.84,22.03l-0.6,1.17L97.78,29.2L98.38,28.03z"/>
<path class="st8" d="M113.07,11.28c1.7-3.31,0.4-7.36-2.9-9.06c-3.3-1.7-7.35-0.39-9.05,2.91c-1.7,3.31-0.4,7.36,2.9,9.06
	C107.32,15.89,111.37,14.59,113.07,11.28z"/>
<path class="st9" d="M99.89,4.34c2.02-3.93,6.85-5.48,10.78-3.46c3.92,2.03,5.46,6.84,3.46,10.77c-2.02,3.93-6.85,5.48-10.78,3.46
	C99.41,13.09,97.87,8.27,99.89,4.34z M101.82,5.52l1.77,5.52l9.95-3.18l-0.5-1.55L104.65,9l-1.28-3.98L101.82,5.52z"/>
</svg>
