<?xml version="1.0" encoding="utf-8"?>
<!-- Generator: Adobe Illustrator 24.2.3, SVG Export Plug-In . SVG Version: 6.00 Build 0)  -->
<svg version="1.1" id="Слой_1" xmlns="http://www.w3.org/2000/svg" xmlns:xlink="http://www.w3.org/1999/xlink" x="0px" y="0px"
	 viewBox="0 0 1490.03 1161" style="enable-background:new 0 0 1490.03 1161;" xml:space="preserve">
<style type="text/css">
	.st0{opacity:0.5;fill:#E7ECFF;enable-background:new    ;}
	.st1{opacity:0.24;fill:#505F98;enable-background:new    ;}
	.st2{fill:#FFFFFF;}
	.st3{fill:#505F98;}
	.st4{fill:url(#SVGID_1_);}
	.st5{fill:url(#SVGID_2_);}
	.st6{fill:url(#SVGID_3_);}
	.st7{fill:url(#SVGID_4_);}
	.st8{fill:url(#SVGID_5_);}
	.st9{fill:url(#SVGID_6_);}
	.st10{fill:url(#SVGID_7_);}
	.st11{opacity:0.65;fill:url(#SVGID_8_);enable-background:new    ;}
	.st12{fill:url(#SVGID_9_);}
	.st13{fill-rule:evenodd;clip-rule:evenodd;fill:#505F98;}
	.st14{fill:url(#SVGID_10_);}
	.st15{fill:url(#SVGID_11_);}
	.st16{fill:url(#SVGID_12_);}
	.st17{fill:url(#SVGID_13_);}
	.st18{fill:url(#SVGID_14_);}
	.st19{fill:url(#SVGID_15_);}
	.st20{fill:url(#SVGID_16_);}
	.st21{fill:url(#SVGID_17_);}
	.st22{fill:url(#SVGID_18_);}
	.st23{fill:url(#SVGID_19_);}
	.st24{fill:url(#SVGID_20_);}
	.st25{fill-rule:evenodd;clip-rule:evenodd;fill:url(#SVGID_21_);}
	.st26{fill:url(#SVGID_22_);}
	.st27{fill:url(#SVGID_23_);}
	.st28{opacity:0.65;fill:url(#SVGID_24_);enable-background:new    ;}
	.st29{fill:url(#SVGID_25_);}
	.st30{fill:url(#SVGID_26_);}
	.st31{fill:url(#SVGID_27_);}
	.st32{fill:url(#SVGID_28_);}
	.st33{fill:url(#SVGID_29_);}
	.st34{fill:url(#SVGID_30_);}
	.st35{fill:url(#SVGID_31_);}
	.st36{fill:url(#SVGID_32_);}
	.st37{fill:url(#SVGID_33_);}
	.st38{fill:#28353D;}
	.st39{fill:#606161;}
	.st40{fill:url(#SVGID_34_);}
	.st41{fill:#FFCD9C;}
	.st42{fill:#F4AD7D;}
	.st43{fill:url(#SVGID_35_);}
</style>
<path class="st0" d="M318.34,86.69C198.41,187.22,179.82,377.3,98.59,517.53c-28.28,48.8-64.81,92.47-83.88,146.6
	c-43.77,123.9,16.47,264.45,97.09,362.86c38.44,46.95,83.35,89.96,137.68,109.74c41.78,15.22,86.58,15.85,130.56,16.25l770.46,7.93
	c86.02,0.87,181.6-2.28,243.45-68.69c42.63-45.73,59.94-112.52,74.64-176.27c18.05-78.33,34.42-163.4,6.32-238
	c-32.09-85.36-113.24-133.73-163.65-207.39c-81.81-119.33-79.93-299.82-184.11-395.09C1078.51,31,1014.33,13.57,951.79,4.85
	c-117.9-16.46-229.58,14.61-345.36,10.28C507.46,11.43,400.45,17.87,318.34,86.69z"/>
<path class="st1" d="M559.79,982.61c-46.45,4.67-94.32,9.81-135.2,32.65c-5.47,3.06-11.03,6.68-14.04,12.19
	c-6.06,11.09,0.82,25.72,11.49,32.4c10.67,6.67,23.83,7.43,36.39,7.98c223.57,9.75,447.47,5.92,671.23,2.12
	c64.98-1.1,130.98-2.37,193.25-21.24c11.2-3.38,23.5-8.45,27.71-19.51c5.52-14.45-7.06-30.47-21.73-34.98
	c-14.67-4.5-30.33-1.14-45.51,0.82c-52.69,6.83-105.85-3.61-158.31-11.96c-102.71-16.32-209.27-29.59-313.3-32.06
	c-35.47-0.82-65.75,11.48-100.47,16.34C661.17,974.43,610.18,977.54,559.79,982.61z"/>
<path class="st2" d="M377.08,549.33l115.83-235.92l68.99,33.78L446.06,583.11L377.08,549.33z"/>
<path class="st3" d="M403.92,542.05l14.11-28.84l46.46,22.68l-14.11,28.83L403.92,542.05z"/>
<linearGradient id="SVGID_1_" gradientUnits="userSpaceOnUse" x1="-1163.2385" y1="1988.1338" x2="-1098.4845" y2="2116.7" gradientTransform="matrix(1 0 0 -1 1588.252 2545.3738)">
	<stop  offset="0" style="stop-color:#010101;stop-opacity:0.01"/>
	<stop  offset="0.95" style="stop-color:#010101"/>
</linearGradient>
<path class="st4" d="M403.92,542.05l14.11-28.84l46.46,22.68l-14.11,28.83L403.92,542.05z"/>
<path class="st3" d="M418.04,513.45l14.11-28.84l46.46,22.68l-14.11,28.84L418.04,513.45z"/>
<linearGradient id="SVGID_2_" gradientUnits="userSpaceOnUse" x1="-1150.4618" y1="2014.3988" x2="-1057.6078" y2="2195.9888" gradientTransform="matrix(1 0 0 -1 1588.252 2545.3738)">
	<stop  offset="0" style="stop-color:#010101;stop-opacity:0.01"/>
	<stop  offset="0.95" style="stop-color:#010101"/>
</linearGradient>
<path class="st5" d="M418.04,513.45l14.11-28.84l46.46,22.68l-14.11,28.84L418.04,513.45z"/>
<path class="st3" d="M432.13,484.83l14.11-28.83l46.46,22.68l-14.11,28.83L432.13,484.83z"/>
<linearGradient id="SVGID_3_" gradientUnits="userSpaceOnUse" x1="-1135.3386" y1="2042.1503" x2="-997.9847" y2="2352.2942" gradientTransform="matrix(1 0 0 -1 1588.252 2545.3738)">
	<stop  offset="0" style="stop-color:#010101;stop-opacity:0.01"/>
	<stop  offset="0.95" style="stop-color:#010101"/>
</linearGradient>
<path class="st6" d="M432.13,484.83l14.11-28.83l46.46,22.68l-14.11,28.83L432.13,484.83z"/>
<path class="st3" d="M446.27,456.24l14.11-28.83l46.46,22.68l-14.11,28.84L446.27,456.24z"/>
<linearGradient id="SVGID_4_" gradientUnits="userSpaceOnUse" x1="-1117.3837" y1="2079.7871" x2="-912.4526" y2="2527.1912" gradientTransform="matrix(1 0 0 -1 1588.252 2545.3738)">
	<stop  offset="0" style="stop-color:#010101;stop-opacity:0.01"/>
	<stop  offset="0.36" style="stop-color:#010101;stop-opacity:0.36"/>
	<stop  offset="0.95" style="stop-color:#010101"/>
</linearGradient>
<path class="st7" d="M446.27,456.24l14.11-28.83l46.46,22.68l-14.11,28.84L446.27,456.24z"/>
<path class="st3" d="M460.38,427.6l14.11-28.83l46.46,22.68l-14.11,28.84L460.38,427.6z"/>
<path class="st3" d="M474.49,399.01l14.11-28.84l46.46,22.68l-14.11,28.83L474.49,399.01z"/>
<path class="st3" d="M488.59,370.39l14.11-28.83l46.46,22.68l-14.11,28.83L488.59,370.39z"/>
<linearGradient id="SVGID_5_" gradientUnits="userSpaceOnUse" x1="-1100.4177" y1="2114.1799" x2="-983.2578" y2="2355.7749" gradientTransform="matrix(1 0 0 -1 1588.252 2545.3738)">
	<stop  offset="0" style="stop-color:#FFFFFF;stop-opacity:0.01"/>
	<stop  offset="0.07" style="stop-color:#FFFFFF;stop-opacity:0.22"/>
	<stop  offset="0.16" style="stop-color:#FFFFFF;stop-opacity:0.45"/>
	<stop  offset="0.25" style="stop-color:#FFFFFF;stop-opacity:0.65"/>
	<stop  offset="0.33" style="stop-color:#FFFFFF;stop-opacity:0.8"/>
	<stop  offset="0.4" style="stop-color:#FFFFFF;stop-opacity:0.91"/>
	<stop  offset="0.46" style="stop-color:#FFFFFF;stop-opacity:0.98"/>
	<stop  offset="0.51" style="stop-color:#FFFFFF"/>
</linearGradient>
<path class="st8" d="M472.9,402.6l14.11-28.83l46.46,22.68l-14.11,28.83L472.9,402.6z"/>
<linearGradient id="SVGID_6_" gradientUnits="userSpaceOnUse" x1="-1094.2739" y1="2125.075" x2="-1030.078" y2="2260.9641" gradientTransform="matrix(1 0 0 -1 1588.252 2545.3738)">
	<stop  offset="0" style="stop-color:#FFFFFF;stop-opacity:0.01"/>
	<stop  offset="0.07" style="stop-color:#FFFFFF;stop-opacity:0.22"/>
	<stop  offset="0.16" style="stop-color:#FFFFFF;stop-opacity:0.45"/>
	<stop  offset="0.25" style="stop-color:#FFFFFF;stop-opacity:0.65"/>
	<stop  offset="0.33" style="stop-color:#FFFFFF;stop-opacity:0.8"/>
	<stop  offset="0.4" style="stop-color:#FFFFFF;stop-opacity:0.91"/>
	<stop  offset="0.46" style="stop-color:#FFFFFF;stop-opacity:0.98"/>
	<stop  offset="0.51" style="stop-color:#FFFFFF"/>
</linearGradient>
<path class="st9" d="M487.03,373.97l14.11-28.83l46.46,22.68l-14.11,28.84L487.03,373.97z"/>
<rect x="787.55" y="867" class="st3" width="98.07" height="82"/>
<linearGradient id="SVGID_7_" gradientUnits="userSpaceOnUse" x1="-753.4133" y1="1616.2056" x2="-742.9922" y2="1742.9436" gradientTransform="matrix(1 0 0 -1 1588.252 2545.3738)">
	<stop  offset="0" style="stop-color:#010101;stop-opacity:0.01"/>
	<stop  offset="0.95" style="stop-color:#010101"/>
</linearGradient>
<rect x="787.55" y="867" class="st10" width="98.07" height="82"/>
<path class="st3" d="M588.77,525h499.62c5.17,0,9.37,4.2,9.37,9.37v336.26c0,5.17-4.2,9.37-9.37,9.37H588.77
	c-5.17,0-9.37-4.2-9.37-9.37V534.37C579.4,529.2,583.6,525,588.77,525z"/>
<linearGradient id="SVGID_8_" gradientUnits="userSpaceOnUse" x1="-750.3016" y1="2070.8638" x2="-753.0166" y2="1621.3098" gradientTransform="matrix(1 0 0 -1 1588.252 2545.3738)">
	<stop  offset="0" style="stop-color:#FFFFFF;stop-opacity:0.01"/>
	<stop  offset="0.07" style="stop-color:#FFFFFF;stop-opacity:0.22"/>
	<stop  offset="0.16" style="stop-color:#FFFFFF;stop-opacity:0.45"/>
	<stop  offset="0.25" style="stop-color:#FFFFFF;stop-opacity:0.65"/>
	<stop  offset="0.33" style="stop-color:#FFFFFF;stop-opacity:0.8"/>
	<stop  offset="0.4" style="stop-color:#FFFFFF;stop-opacity:0.91"/>
	<stop  offset="0.46" style="stop-color:#FFFFFF;stop-opacity:0.98"/>
	<stop  offset="0.51" style="stop-color:#FFFFFF"/>
</linearGradient>
<path class="st11" d="M1080.75,554.44v294.12c0.02,4.88-1.91,9.57-5.35,13.03c-3.44,3.46-8.11,5.41-12.99,5.41H610.75
	c-4.87-0.01-9.54-1.96-12.98-5.42c-3.44-3.46-5.37-8.14-5.35-13.02V554.44c-0.01-4.88,1.91-9.56,5.35-13.02
	c3.44-3.46,8.11-5.41,12.98-5.42h451.66c4.88,0.01,9.55,1.95,12.99,5.41C1078.84,544.87,1080.77,549.56,1080.75,554.44z"/>
<rect x="742.51" y="939" class="st3" width="206.14" height="21"/>
<linearGradient id="SVGID_9_" gradientUnits="userSpaceOnUse" x1="-751.6891" y1="1635.7101" x2="-751.5891" y2="1493.4731" gradientTransform="matrix(1 0 0 -1 1588.252 2545.3738)">
	<stop  offset="0" style="stop-color:#010101;stop-opacity:0.01"/>
	<stop  offset="0.95" style="stop-color:#010101"/>
</linearGradient>
<rect x="787.55" y="927" class="st12" width="98.07" height="12"/>
<path class="st13" d="M942.65,353.24v20.47l-12.71,0.1c-1.24,9.53-4.86,18.59-10.54,26.36l10.85,11.17l-14.88,14.25l-10.69-11.02
	c-6.59,4.48-14.02,7.59-21.86,9.14V437h-20.57v-12.97c-8.79-1.27-17.16-4.53-24.47-9.54l-8.94,8.82l-14.56-14.67l8.87-8.65
	c-5.59-7.77-9.15-16.8-10.37-26.28h-14.25v-20.47h14.75c1.83-8.15,5.43-15.8,10.54-22.42l-8.24-8.49l14.88-14.25l8.43,8.74
	c6.97-4.61,14.89-7.59,23.18-8.74V294h20.57v14.4c8.37,1.66,16.28,5.1,23.18,10.08l10.54-10.31l14.48,14.54l-10.54,10.48
	c4.13,6.08,7.06,12.89,8.64,20.05H942.65z M836.51,366.15c-0.02,19.06,15.5,34.53,34.67,34.55c9.21,0.03,18.05-3.59,24.58-10.06
	c6.52-6.47,10.18-15.25,10.18-24.41c0.02-19.06-15.5-34.53-34.67-34.55C852.1,331.65,836.54,347.09,836.51,366.15z"/>
<path class="st13" d="M1018.71,387.35l-0.92,12.04l-7.51-0.46c-1.13,5.54-3.63,10.7-7.29,15.02l5.87,7.06l-9.35,7.71l-5.76-6.94
	c-4.05,2.34-8.54,3.83-13.19,4.4l-0.6,7.81l-12.04-0.9l0.58-7.62c-5.09-1.14-9.84-3.42-13.9-6.69l-5.63,4.79l-7.87-9.19l5.57-4.71
	c-2.93-4.81-4.61-10.27-4.9-15.9l-8.12-0.62l0.9-12.02l8.62,0.65c1.42-4.71,3.85-9.05,7.12-12.73l-4.45-5.35l9.35-7.71l4.53,5.5
	c4.27-2.4,9.03-3.83,13.92-4.17l0.63-8.33l12.04,0.9l-0.65,8.48c4.81,1.34,9.26,3.71,13.06,6.94l6.61-5.6l7.85,9.19l-6.68,5.69
	c2.17,3.76,3.58,7.89,4.17,12.19L1018.71,387.35z M956.01,390.24c-0.85,11.19,7.54,20.96,18.75,21.82
	c5.39,0.42,10.73-1.32,14.84-4.83c4.11-3.52,6.64-8.53,7.03-13.92c0.84-11.19-7.56-20.95-18.77-21.8
	C966.64,370.67,956.86,379.05,956.01,390.24z"/>
<linearGradient id="SVGID_10_" gradientUnits="userSpaceOnUse" x1="-755.9038" y1="1937.6311" x2="-721.7239" y2="2344.7422" gradientTransform="matrix(1 0 0 -1 1588.252 2545.3738)">
	<stop  offset="0" style="stop-color:#FFFFFF;stop-opacity:0.01"/>
	<stop  offset="0.07" style="stop-color:#FFFFFF;stop-opacity:0.22"/>
	<stop  offset="0.16" style="stop-color:#FFFFFF;stop-opacity:0.45"/>
	<stop  offset="0.25" style="stop-color:#FFFFFF;stop-opacity:0.65"/>
	<stop  offset="0.33" style="stop-color:#FFFFFF;stop-opacity:0.8"/>
	<stop  offset="0.4" style="stop-color:#FFFFFF;stop-opacity:0.91"/>
	<stop  offset="0.46" style="stop-color:#FFFFFF;stop-opacity:0.98"/>
	<stop  offset="0.51" style="stop-color:#FFFFFF"/>
</linearGradient>
<path class="st14" d="M1080.75,554.51V561H592.41v-6.49c-0.01-4.9,1.91-9.6,5.35-13.07c3.44-3.47,8.11-5.43,12.98-5.44h451.66
	c4.88,0.01,9.55,1.96,12.99,5.43C1078.84,544.91,1080.77,549.61,1080.75,554.51z"/>
<linearGradient id="SVGID_11_" gradientUnits="userSpaceOnUse" x1="-1020.7761" y1="1994.868" x2="-882.769" y2="1626.5961" gradientTransform="matrix(1 0 0 -1 1588.252 2545.3738)">
	<stop  offset="0" style="stop-color:#FFFFFF;stop-opacity:0.01"/>
	<stop  offset="0.07" style="stop-color:#FFFFFF;stop-opacity:0.22"/>
	<stop  offset="0.16" style="stop-color:#FFFFFF;stop-opacity:0.45"/>
	<stop  offset="0.25" style="stop-color:#FFFFFF;stop-opacity:0.65"/>
	<stop  offset="0.33" style="stop-color:#FFFFFF;stop-opacity:0.8"/>
	<stop  offset="0.4" style="stop-color:#FFFFFF;stop-opacity:0.91"/>
	<stop  offset="0.46" style="stop-color:#FFFFFF;stop-opacity:0.98"/>
	<stop  offset="0.51" style="stop-color:#FFFFFF"/>
</linearGradient>
<rect x="602.42" y="593" class="st15" width="47.03" height="227"/>
<linearGradient id="SVGID_12_" gradientUnits="userSpaceOnUse" x1="-755.4972" y1="1974.6268" x2="-758.8222" y2="1691.9188" gradientTransform="matrix(1 0 0 -1 1588.252 2545.3738)">
	<stop  offset="0" style="stop-color:#FFFFFF;stop-opacity:0.01"/>
	<stop  offset="0.07" style="stop-color:#FFFFFF;stop-opacity:0.22"/>
	<stop  offset="0.16" style="stop-color:#FFFFFF;stop-opacity:0.45"/>
	<stop  offset="0.25" style="stop-color:#FFFFFF;stop-opacity:0.65"/>
	<stop  offset="0.33" style="stop-color:#FFFFFF;stop-opacity:0.8"/>
	<stop  offset="0.4" style="stop-color:#FFFFFF;stop-opacity:0.91"/>
	<stop  offset="0.46" style="stop-color:#FFFFFF;stop-opacity:0.98"/>
	<stop  offset="0.51" style="stop-color:#FFFFFF"/>
</linearGradient>
<rect x="720.5" y="609" class="st16" width="221.15" height="209"/>
<linearGradient id="SVGID_13_" gradientUnits="userSpaceOnUse" x1="-814.6002" y1="1792.1584" x2="-795.4132" y2="2370.0774" gradientTransform="matrix(1 0 0 -1 1588.252 2545.3738)">
	<stop  offset="0" style="stop-color:#010101;stop-opacity:0.01"/>
	<stop  offset="0.95" style="stop-color:#010101"/>
</linearGradient>
<rect x="771.53" y="707" class="st17" width="7" height="9"/>
<linearGradient id="SVGID_14_" gradientUnits="userSpaceOnUse" x1="-816.0056" y1="1791.8365" x2="-796.8166" y2="2369.7566" gradientTransform="matrix(1 0 0 -1 1588.252 2545.3738)">
	<stop  offset="0" style="stop-color:#010101;stop-opacity:0.01"/>
	<stop  offset="0.95" style="stop-color:#010101"/>
</linearGradient>
<rect x="771.53" y="665" class="st18" width="7" height="9"/>
<linearGradient id="SVGID_15_" gradientUnits="userSpaceOnUse" x1="-909.5898" y1="1794.5183" x2="-890.3738" y2="2372.4373" gradientTransform="matrix(1 0 0 -1 1588.252 2545.3738)">
	<stop  offset="0" style="stop-color:#010101;stop-opacity:0.01"/>
	<stop  offset="0.95" style="stop-color:#010101"/>
</linearGradient>
<rect x="676.47" y="707" class="st19" width="7" height="9"/>
<linearGradient id="SVGID_16_" gradientUnits="userSpaceOnUse" x1="-910.9971" y1="1794.1968" x2="-891.7811" y2="2372.1147" gradientTransform="matrix(1 0 0 -1 1588.252 2545.3738)">
	<stop  offset="0" style="stop-color:#010101;stop-opacity:0.01"/>
	<stop  offset="0.95" style="stop-color:#010101"/>
</linearGradient>
<rect x="676.47" y="665" class="st20" width="7" height="9"/>
<linearGradient id="SVGID_17_" gradientUnits="userSpaceOnUse" x1="-817.5551" y1="1790.3682" x2="-798.3371" y2="2368.2861" gradientTransform="matrix(1 0 0 -1 1588.252 2545.3738)">
	<stop  offset="0" style="stop-color:#010101;stop-opacity:0.01"/>
	<stop  offset="0.95" style="stop-color:#010101"/>
</linearGradient>
<rect x="771.53" y="620" class="st21" width="7" height="9"/>
<linearGradient id="SVGID_18_" gradientUnits="userSpaceOnUse" x1="-911.5371" y1="1792.6638" x2="-892.3491" y2="2370.5828" gradientTransform="matrix(1 0 0 -1 1588.252 2545.3738)">
	<stop  offset="0" style="stop-color:#010101;stop-opacity:0.01"/>
	<stop  offset="0.95" style="stop-color:#010101"/>
</linearGradient>
<rect x="677.47" y="620" class="st22" width="7" height="9"/>
<linearGradient id="SVGID_19_" gradientUnits="userSpaceOnUse" x1="-863.5486" y1="1791.5151" x2="-844.3326" y2="2369.4121" gradientTransform="matrix(1 0 0 -1 1588.252 2545.3738)">
	<stop  offset="0" style="stop-color:#010101;stop-opacity:0.01"/>
	<stop  offset="0.95" style="stop-color:#010101"/>
</linearGradient>
<rect x="725.5" y="620" class="st23" width="7" height="9"/>
<linearGradient id="SVGID_20_" gradientUnits="userSpaceOnUse" x1="-860.5721" y1="1794.0292" x2="-841.3561" y2="2371.9473" gradientTransform="matrix(1 0 0 -1 1588.252 2545.3738)">
	<stop  offset="0" style="stop-color:#010101;stop-opacity:0.01"/>
	<stop  offset="0.95" style="stop-color:#010101"/>
</linearGradient>
<rect x="725.5" y="707" class="st24" width="7" height="9"/>
<path class="st13" d="M689.48,705h78.05v-73h-78.05V705z M759.67,697.28h-62.33v-57.63h62.33V697.28z"/>
<linearGradient id="SVGID_21_" gradientUnits="userSpaceOnUse" x1="-871.7784" y1="1888.0996" x2="-639.5454" y2="1671.4045" gradientTransform="matrix(1 0 0 -1 1588.252 2545.3738)">
	<stop  offset="0" style="stop-color:#FFFFFF;stop-opacity:0.01"/>
	<stop  offset="0.07" style="stop-color:#FFFFFF;stop-opacity:0.22"/>
	<stop  offset="0.16" style="stop-color:#FFFFFF;stop-opacity:0.45"/>
	<stop  offset="0.25" style="stop-color:#FFFFFF;stop-opacity:0.65"/>
	<stop  offset="0.33" style="stop-color:#FFFFFF;stop-opacity:0.8"/>
	<stop  offset="0.4" style="stop-color:#FFFFFF;stop-opacity:0.91"/>
	<stop  offset="0.46" style="stop-color:#FFFFFF;stop-opacity:0.98"/>
	<stop  offset="0.51" style="stop-color:#FFFFFF"/>
</linearGradient>
<path class="st25" d="M689.48,705h78.05v-73h-78.05V705z M759.67,697.28h-62.33v-57.63h62.33V697.28z"/>
<linearGradient id="SVGID_22_" gradientUnits="userSpaceOnUse" x1="-563.6419" y1="1990.6167" x2="-565.4269" y2="1855.4547" gradientTransform="matrix(1 0 0 -1 1588.252 2545.3738)">
	<stop  offset="0" style="stop-color:#FFFFFF;stop-opacity:0.01"/>
	<stop  offset="0.07" style="stop-color:#FFFFFF;stop-opacity:0.22"/>
	<stop  offset="0.16" style="stop-color:#FFFFFF;stop-opacity:0.45"/>
	<stop  offset="0.25" style="stop-color:#FFFFFF;stop-opacity:0.65"/>
	<stop  offset="0.33" style="stop-color:#FFFFFF;stop-opacity:0.8"/>
	<stop  offset="0.4" style="stop-color:#FFFFFF;stop-opacity:0.91"/>
	<stop  offset="0.46" style="stop-color:#FFFFFF;stop-opacity:0.98"/>
	<stop  offset="0.51" style="stop-color:#FFFFFF"/>
</linearGradient>
<rect x="973.67" y="573" class="st26" width="100.07" height="100"/>
<linearGradient id="SVGID_23_" gradientUnits="userSpaceOnUse" x1="-563.6419" y1="1880.6167" x2="-565.4269" y2="1745.4547" gradientTransform="matrix(1 0 0 -1 1588.252 2545.3738)">
	<stop  offset="0" style="stop-color:#FFFFFF;stop-opacity:0.01"/>
	<stop  offset="0.07" style="stop-color:#FFFFFF;stop-opacity:0.22"/>
	<stop  offset="0.16" style="stop-color:#FFFFFF;stop-opacity:0.45"/>
	<stop  offset="0.25" style="stop-color:#FFFFFF;stop-opacity:0.65"/>
	<stop  offset="0.33" style="stop-color:#FFFFFF;stop-opacity:0.8"/>
	<stop  offset="0.4" style="stop-color:#FFFFFF;stop-opacity:0.91"/>
	<stop  offset="0.46" style="stop-color:#FFFFFF;stop-opacity:0.98"/>
	<stop  offset="0.51" style="stop-color:#FFFFFF"/>
</linearGradient>
<rect x="973.67" y="683" class="st27" width="100.07" height="100"/>
<linearGradient id="SVGID_24_" gradientUnits="userSpaceOnUse" x1="-962.3098" y1="1956.062" x2="-962.3268" y2="1937.8621" gradientTransform="matrix(1 0 0 -1 1588.252 2545.3738)">
	<stop  offset="0" style="stop-color:#FFFFFF;stop-opacity:0.01"/>
	<stop  offset="0.07" style="stop-color:#FFFFFF;stop-opacity:0.22"/>
	<stop  offset="0.16" style="stop-color:#FFFFFF;stop-opacity:0.45"/>
	<stop  offset="0.25" style="stop-color:#FFFFFF;stop-opacity:0.65"/>
	<stop  offset="0.33" style="stop-color:#FFFFFF;stop-opacity:0.8"/>
	<stop  offset="0.4" style="stop-color:#FFFFFF;stop-opacity:0.91"/>
	<stop  offset="0.46" style="stop-color:#FFFFFF;stop-opacity:0.98"/>
	<stop  offset="0.51" style="stop-color:#FFFFFF"/>
</linearGradient>
<rect x="602.42" y="592" class="st28" width="47.03" height="13"/>
<path class="st2" d="M399.38,523.83l205.13-164.53l48.11,59.83L447.49,583.65L399.38,523.83z"/>
<path class="st3" d="M428.1,528.45l25.07-20.22l32.58,40.29l-25.07,20.22L428.1,528.45z"/>
<linearGradient id="SVGID_25_" gradientUnits="userSpaceOnUse" x1="-1147.4335" y1="1994.1848" x2="-1034.0024" y2="2083.6018" gradientTransform="matrix(1 0 0 -1 1588.252 2545.3738)">
	<stop  offset="0" style="stop-color:#010101;stop-opacity:0.01"/>
	<stop  offset="0.95" style="stop-color:#010101"/>
</linearGradient>
<path class="st29" d="M428.1,528.45l25.07-20.22l32.58,40.29l-25.07,20.22L428.1,528.45z"/>
<path class="st3" d="M451.72,508.69l25.03-20.13l32.43,40.23l-25.03,20.13L451.72,508.69z"/>
<linearGradient id="SVGID_26_" gradientUnits="userSpaceOnUse" x1="-1126.0911" y1="2012.4404" x2="-964.8141" y2="2137.5613" gradientTransform="matrix(1 0 0 -1 1588.252 2545.3738)">
	<stop  offset="0" style="stop-color:#010101;stop-opacity:0.01"/>
	<stop  offset="0.95" style="stop-color:#010101"/>
</linearGradient>
<path class="st30" d="M451.72,508.69l25.03-20.13l32.43,40.23l-25.03,20.13L451.72,508.69z"/>
<path class="st3" d="M476.67,488.76l25.03-20.13l32.43,40.23l-25.03,20.13L476.67,488.76z"/>
<linearGradient id="SVGID_27_" gradientUnits="userSpaceOnUse" x1="-1100.5848" y1="2031.144" x2="-844.4198" y2="2253.8669" gradientTransform="matrix(1 0 0 -1 1588.252 2545.3738)">
	<stop  offset="0" style="stop-color:#010101;stop-opacity:0.01"/>
	<stop  offset="0.95" style="stop-color:#010101"/>
</linearGradient>
<path class="st31" d="M476.67,488.76l25.03-20.13l32.43,40.23l-25.03,20.13L476.67,488.76z"/>
<path class="st3" d="M501.59,468.85l25.03-20.13l32.43,40.23l-25.03,20.13L501.59,468.85z"/>
<linearGradient id="SVGID_28_" gradientUnits="userSpaceOnUse" x1="-1068.3447" y1="2057.644" x2="-692.6638" y2="2376.0591" gradientTransform="matrix(1 0 0 -1 1588.252 2545.3738)">
	<stop  offset="0" style="stop-color:#010101;stop-opacity:0.01"/>
	<stop  offset="0.36" style="stop-color:#010101;stop-opacity:0.36"/>
	<stop  offset="0.95" style="stop-color:#010101"/>
</linearGradient>
<path class="st32" d="M501.59,468.85l25.03-20.13l32.43,40.23l-25.03,20.13L501.59,468.85z"/>
<path class="st3" d="M527.71,448.39l25.07-20.22l32.58,40.29l-25.07,20.22L527.71,448.39z"/>
<path class="st3" d="M552.79,427.99l25.07-20.22l32.58,40.29l-25.07,20.22L552.79,427.99z"/>
<path class="st3" d="M576.4,409.05l25.03-20.13l32.43,40.23l-25.03,20.13L576.4,409.05z"/>
<linearGradient id="SVGID_29_" gradientUnits="userSpaceOnUse" x1="-1032.2931" y1="2087.6726" x2="-849.353" y2="2219.1016" gradientTransform="matrix(1 0 0 -1 1588.252 2545.3738)">
	<stop  offset="0" style="stop-color:#FFFFFF;stop-opacity:0.01"/>
	<stop  offset="0.07" style="stop-color:#FFFFFF;stop-opacity:0.22"/>
	<stop  offset="0.16" style="stop-color:#FFFFFF;stop-opacity:0.45"/>
	<stop  offset="0.25" style="stop-color:#FFFFFF;stop-opacity:0.65"/>
	<stop  offset="0.33" style="stop-color:#FFFFFF;stop-opacity:0.8"/>
	<stop  offset="0.4" style="stop-color:#FFFFFF;stop-opacity:0.91"/>
	<stop  offset="0.46" style="stop-color:#FFFFFF;stop-opacity:0.98"/>
	<stop  offset="0.51" style="stop-color:#FFFFFF"/>
</linearGradient>
<path class="st33" d="M606.42,452.22L585.32,469l-31.94-40.22l21.1-16.78L606.42,452.22z"/>
<linearGradient id="SVGID_30_" gradientUnits="userSpaceOnUse" x1="-1028.1627" y1="2088.8518" x2="-912.3047" y2="2184.7109" gradientTransform="matrix(1 0 0 -1 1588.252 2545.3738)">
	<stop  offset="0" style="stop-color:#FFFFFF;stop-opacity:0.01"/>
	<stop  offset="0.07" style="stop-color:#FFFFFF;stop-opacity:0.22"/>
	<stop  offset="0.16" style="stop-color:#FFFFFF;stop-opacity:0.45"/>
	<stop  offset="0.25" style="stop-color:#FFFFFF;stop-opacity:0.65"/>
	<stop  offset="0.33" style="stop-color:#FFFFFF;stop-opacity:0.8"/>
	<stop  offset="0.4" style="stop-color:#FFFFFF;stop-opacity:0.91"/>
	<stop  offset="0.46" style="stop-color:#FFFFFF;stop-opacity:0.98"/>
	<stop  offset="0.51" style="stop-color:#FFFFFF"/>
</linearGradient>
<path class="st34" d="M573.44,411.65l25.03-20.13l32.43,40.23l-25.03,20.13L573.44,411.65z"/>
<path class="st3" d="M522.36,533.15V656h-21.01V533.15c0-4.54,2.82-8.58,7.02-10.06v-12.26c0-2.11,1.68-3.83,3.74-3.83
	c2.07,0,3.74,1.71,3.74,3.83v12.47C519.77,524.93,522.34,528.82,522.36,533.15z"/>
<linearGradient id="SVGID_31_" gradientUnits="userSpaceOnUse" x1="-1084.7275" y1="1963.874" x2="-1046.5426" y2="1963.8519" gradientTransform="matrix(1 0 0 -1 1588.252 2545.3738)">
	<stop  offset="0" style="stop-color:#FFFFFF;stop-opacity:0.01"/>
	<stop  offset="0.07" style="stop-color:#FFFFFF;stop-opacity:0.22"/>
	<stop  offset="0.16" style="stop-color:#FFFFFF;stop-opacity:0.45"/>
	<stop  offset="0.25" style="stop-color:#FFFFFF;stop-opacity:0.65"/>
	<stop  offset="0.33" style="stop-color:#FFFFFF;stop-opacity:0.8"/>
	<stop  offset="0.4" style="stop-color:#FFFFFF;stop-opacity:0.91"/>
	<stop  offset="0.46" style="stop-color:#FFFFFF;stop-opacity:0.98"/>
	<stop  offset="0.51" style="stop-color:#FFFFFF"/>
</linearGradient>
<path class="st35" d="M522.36,533.15V656h-21.01V533.15c0-4.54,2.82-8.58,7.02-10.06v-12.26c0-2.11,1.68-3.83,3.74-3.83
	c2.07,0,3.74,1.71,3.74,3.83v12.47C519.77,524.93,522.34,528.82,522.36,533.15z"/>
<path class="st3" d="M490.58,611h45.54c1.24,0,2.24,1.01,2.24,2.24v4.51c0,1.24-1.01,2.24-2.24,2.24h-45.54
	c-1.24,0-2.24-1.01-2.24-2.24v-4.51C488.34,612.01,489.34,611,490.58,611z"/>
<path class="st3" d="M513.04,693c-8.57,0-15.7-12.82-15.7-21.37V615h31.02v56.63C528.37,680.18,521.6,693,513.04,693z"/>
<linearGradient id="SVGID_32_" gradientUnits="userSpaceOnUse" x1="-1080.7797" y1="1949.4318" x2="-1069.1287" y2="1910.6998" gradientTransform="matrix(1 0 0 -1 1588.252 2545.3738)">
	<stop  offset="0" style="stop-color:#010101;stop-opacity:0.01"/>
	<stop  offset="0.95" style="stop-color:#010101"/>
</linearGradient>
<path class="st36" d="M490.58,611h45.54c1.24,0,2.24,1.01,2.24,2.24v4.51c0,1.24-1.01,2.24-2.24,2.24h-45.54
	c-1.24,0-2.24-1.01-2.24-2.24v-4.51C488.34,612.01,489.34,611,490.58,611z"/>
<linearGradient id="SVGID_33_" gradientUnits="userSpaceOnUse" x1="-1131.0175" y1="1890.158" x2="-1030.1155" y2="1888.115" gradientTransform="matrix(1 0 0 -1 1588.252 2545.3738)">
	<stop  offset="0" style="stop-color:#010101;stop-opacity:0.01"/>
	<stop  offset="0.95" style="stop-color:#010101"/>
</linearGradient>
<path class="st37" d="M513.04,693c-8.57,0-15.7-12.63-15.7-21.06V620h31.02v51.94C528.37,680.37,521.6,693,513.04,693z"/>
<path class="st38" d="M713.14,753c-0.67-3.56-1.1-8.61,0.2-8.96C716.06,743.28,713.14,753,713.14,753z"/>
<path class="st39" d="M856.4,948.51c-0.49,12.59-10.25,58.88-10.57,71.5c0,4.2,1.12,10.64-0.23,14.69
	c-2.79,8.59-12.68,7.41-13.97,2.35l-0.49-2.52c-4.59-24.52,2.79-52.33,0-84.34c-1.67-19.54-9.45-57.22-14.54-57.47
	c-2.68,0-63.94,129.14-69.27,137.1c-2.62,4.01-9.99,3.38-13.57,6.61c-3.57,3.23,29.75-97.9,43.72-151.35
	c3.26-11.03,5.38-22.36,6.34-33.82c0.38-6.61-1.75-8.84,4.35-10.79c4.23-1.34,10.08-0.97,14.6-1.28c4.92-0.38,50.71-0.46,50.71,2.77
	C853.06,859.5,857.58,919.41,856.4,948.51z"/>
<linearGradient id="SVGID_34_" gradientUnits="userSpaceOnUse" x1="-784.3674" y1="1588.4651" x2="-880.4604" y2="1753.2452" gradientTransform="matrix(1 0 0 -1 1588.252 2545.3738)">
	<stop  offset="0" style="stop-color:#010101;stop-opacity:0.01"/>
	<stop  offset="0.95" style="stop-color:#010101"/>
</linearGradient>
<path class="st40" d="M856.4,948.51c-0.49,12.59-10.25,58.88-10.57,71.5c0,4.2,1.12,10.64-0.23,14.69
	c-2.79,8.59-12.68,7.41-13.97,2.35l-0.49-2.52c-4.59-24.52,2.79-52.33,0-84.34c-1.67-19.54-9.45-57.22-14.54-57.47
	c-2.68,0-63.94,129.14-69.27,137.1c-2.62,4.01-9.99,3.38-13.57,6.61c-3.57,3.23,29.75-97.9,43.72-151.35
	c3.26-11.03,5.38-22.36,6.34-33.82c0.38-6.61-1.75-8.84,4.35-10.79c4.23-1.34,10.08-0.97,14.6-1.28c4.92-0.38,50.71-0.46,50.71,2.77
	C853.06,859.5,857.58,919.41,856.4,948.51z"/>
<path class="st41" d="M802.32,680.15c-0.39-3.98-2.27-6.15-4.11-6.15c-1.84,0-2.97,2.12-2.59,6.15c0.09,2.97,2.33,5.45,5.3,5.85
	C802.79,686,802.73,684.13,802.32,680.15z"/>
<path class="st41" d="M834.72,680.16c0.25-3.99,2.09-6.16,3.99-6.16c1.9,0,3.13,2.12,2.84,6.16c-0.03,3.01-2.27,5.53-5.22,5.84
	C834.44,686,834.42,684.15,834.72,680.16z"/>
<path class="st42" d="M838.44,697.67c-0.26,2.1-9.17,11.33-19.32,11.33c-10.15,0-18.52-8.42-20.29-11.79s5.35-46.7,9.48-50.32
	c4.12-3.62,20.83-1.24,22.23,0.67C833.91,652.09,839.54,689.27,838.44,697.67z"/>
<path class="st41" d="M834.25,664.98c-1.38,0.66-6.8-13.14-7.93-15.45c-1.14-2.32-0.95-4.7,0.43-5.36c1.38-0.66,3.41,0.7,4.54,3
	C832.42,649.46,835.61,664.34,834.25,664.98z"/>
<path class="st41" d="M803.88,663.99c-1.43-0.49,2.36-14.81,3.18-17.28c0.83-2.47,2.68-4.1,4.03-3.62c1.35,0.49,1.91,2.9,1.09,5.4
	C811.35,650.98,805.23,664.47,803.88,663.99z"/>
<path class="st42" d="M809.55,696h21.76l3.26,20.62c-11.86,6.38-18.77,5.68-28.02-1.41L809.55,696z"/>
<path class="st42" d="M818.57,700.13c0-0.38,0.9-0.7,2-0.7s2,0.32,2,0.7s-0.88,0.44-2,0.44S818.57,700.53,818.57,700.13z"/>
<path class="st39" d="M839.6,690.81c0.82-4.91,2.17-40.1-1.13-44.76c-3.29-4.66-23.02-7.67-26.01-6.94
	c-6.7,1.62-5.53,6.41-5.53,6.41c-1.99,0.03-3.94,0.57-5.66,1.56c-2.3,1.54-7.13,23.71-3.27,40.48c1.73,7.54,8.56,14.1,20.36,14.42
	C832.88,702.36,838.6,696.9,839.6,690.81z"/>
<path class="st39" d="M812.54,640.76c1.56-1.31,3.58-1.93,5.6-1.72c6.13-0.03,12.22,1.1,17.93,3.33c3.17,1.11,6.05,2.93,8.42,5.33
	c2.39,2.46,3.49,5.92,2.97,9.33c-1.05,5.01-6.32,8.11-8.04,12.94c-1.39,3.87-0.4,7.61-0.36,11.49c0.03,3.14-0.2,6.28-0.67,9.39
	c-0.97,6.05-6.5,11.49-20.71,11.13c-11.45-0.32-18.08-6.84-19.77-14.34c-2.28-12.45-1.68-25.26,1.75-37.43
	c6.17,1.43,12.49,2.15,18.82,2.12c6.71,0.06,13.41-0.73,19.93-2.34c1.12,6.5,1.1,19.52,0.74,29.25"/>
<path class="st3" d="M777.41,712.95c-3.43,0.29-6.74,1.43-9.62,3.33c-4.94,3.89-5.31,11.15-5.23,17.47
	c-0.17,8.75,0.44,17.5,1.81,26.15c1.48,7.93,4.17,15.54,6.38,23.31c3.48,12.63,5.31,25.66,5.44,38.76c0,7.2-0.12,15.1,4.35,20.73
	c4.9,6.11,13.56,7.3,21.35,7.74c11.06,0.65,22.17,0.73,33.23,0.27c7.42-0.33,15.31-1.07,21.19-5.63
	c4.69-3.64,15.67-126.79,7.15-129.91c-8.52-3.12-17.69-3.91-26.73-4.67C816.45,708.79,797.37,707.43,777.41,712.95z"/>
<linearGradient id="SVGID_35_" gradientUnits="userSpaceOnUse" x1="-715.652" y1="1589.5339" x2="-888.538" y2="1584.6649" gradientTransform="matrix(1 0 0 -1 1588.252 2545.3738)">
	<stop  offset="0" style="stop-color:#010101;stop-opacity:0.01"/>
	<stop  offset="0.95" style="stop-color:#010101"/>
</linearGradient>
<path class="st43" d="M841.23,968.29c-1.09,13.96-3.68,64.71-3.68,64.71l-6.61-0.23c-4.54-24.38,2.76-52.04,0-83.87
	c-1.65-19.43-9.34-56.9-14.38-57.15c1.51-12.52,9.97-10.65,9.97-10.65c6.16,9.19,11.47,18.93,15.86,29.08
	C847.44,923.37,842.34,954.26,841.23,968.29z"/>
<path class="st3" d="M716.87,1034.02c-1.03,0.76-1.81,1.81-2.25,3c-0.24,0.98-0.14,2.01,0.27,2.94c1.17,2.36,3.38,4.05,5.98,4.58
	c2.58,0.49,5.21,0.58,7.82,0.27l8.34-0.56c2.12-0.05,4.23-0.39,6.26-1.01c2.03-0.63,3.71-2.06,4.63-3.95
	c0.49-1.39,0.68-2.87,0.56-4.34c0-6.81-2.42-12.34-9.97-10.67C730.61,1025.77,723.18,1029.1,716.87,1034.02z"/>
<path class="st3" d="M855.41,1037.06c0.95,0.7,1.67,1.65,2.07,2.73c0.21,0.89,0.13,1.81-0.24,2.65c-1.06,2.14-3.09,3.67-5.48,4.13
	c-2.36,0.46-4.77,0.54-7.16,0.26l-7.57-0.51c-1.93-0.04-3.84-0.34-5.68-0.89c-1.86-0.57-3.39-1.87-4.22-3.58
	c-0.45-1.26-0.63-2.59-0.52-3.92c0-6.15,2.18-11.21,9.12-9.64C842.91,1029.62,849.67,1032.63,855.41,1037.06z"/>
<path class="st3" d="M864.6,715c0,0,32.72,19.16,42.54,43.39c9.83,24.23-32.18,82.61-32.18,82.61l-8.99-9.19
	c0,0,21.92-44.06,18.54-55.07c-3.39-11.02-16.67-21.29-16.67-21.29L864.6,715z"/>
<path class="st3" d="M771.53,752.86c0,0-45.49,20.38-63.97,10.38c-18.49-10,0.54-60.24,0.54-60.24l12.38,4.2
	c0,0-10.34,25.61,1.49,29.42c11.83,3.8,47.29-21.18,47.29-21.18L771.53,752.86z"/>
<path class="st42" d="M857.17,839.98c-1.31,0.85-2.37,1.99-3.09,3.32c-0.43,1.13-0.58,2.33-0.45,3.52
	c-0.08,2.89,1.24,5.66,3.58,7.55c1.65,0.88,3.49,1.39,5.39,1.49c1.16,0.19,2.35,0.19,3.52,0c1.19-0.21,2.18-0.97,2.63-2.01
	c0.15-0.66,0.22-1.34,0.19-2.01c0.15-3.32,2.65-6.04,4.72-8.76c0.5-0.52,0.82-1.18,0.93-1.87c-0.01-0.77-0.3-1.51-0.82-2.11
	c-1.4-1.89-4.88-5.37-7.66-5.07C863.34,834.32,859.33,838.33,857.17,839.98z"/>
<path class="st42" d="M728.29,695.43c0.59-0.82,1-1.76,1.19-2.74c0.15-1.02-0.39-2.01-1.34-2.49c-1.52-0.56-3.32,0.92-4.81,0.29
	c-0.51-0.27-0.93-0.66-1.23-1.13c-1.76-2.43-2.78-5.28-2.92-8.23c0.09-1.57-0.06-3.15-0.44-4.68c-0.45-1.58-2.03-2.61-3.73-2.45
	c-1.41,0.31-2.2,1.67-3.08,2.76c-0.88,1.09-2.64,2.38-3.78,3.74c-1.95,2.79-3.07,6.03-3.23,9.38c-0.62,4.18-1.01,8.96,2.07,11.97
	c2.37,2.32,9.6,5.06,12.92,3.82C723.57,704.32,726.45,698.44,728.29,695.43z"/>
</svg>
