<?xml version="1.0" encoding="utf-8"?>
<!-- Generator: Adobe Illustrator 24.2.3, SVG Export Plug-In . SVG Version: 6.00 Build 0)  -->
<svg version="1.1" id="Слой_1" xmlns="http://www.w3.org/2000/svg" xmlns:xlink="http://www.w3.org/1999/xlink" x="0px" y="0px"
	 viewBox="0 0 540 524.31" style="enable-background:new 0 0 540 524.31;" xml:space="preserve">
<style type="text/css">
	.st0{fill:#F0F0F0;}
	.st1{fill-rule:evenodd;clip-rule:evenodd;fill:#3F3D56;}
	.st2{fill:#222F65;}
	.st3{fill:#3F3D56;}
	.st4{opacity:0.1;enable-background:new    ;}
	.st5{fill:#2F2E41;}
	.st6{fill:#FFB8B8;}
	.st7{fill:#FF6584;}
</style>
<path class="st0" d="M125.19,397.31L167,331.19l-93.64-59.88L25,347.79l77.45,49.53H125.19z"/>
<path class="st1" d="M80,416.31h103v-20H80V416.31z M181.66,415.02H81.34V397.6h100.32V415.02z"/>
<path class="st2" d="M171.5,413.31c3.59,0,6.5-2.91,6.5-6.5c0-3.59-2.91-6.5-6.5-6.5s-6.5,2.91-6.5,6.5
	C165,410.4,167.91,413.31,171.5,413.31z"/>
<path class="st2" d="M151.5,413.31c3.59,0,6.5-2.91,6.5-6.5c0-3.59-2.91-6.5-6.5-6.5s-6.5,2.91-6.5,6.5
	C145,410.4,147.91,413.31,151.5,413.31z"/>
<path class="st2" d="M133.5,413.31c3.59,0,6.5-2.91,6.5-6.5c0-3.59-2.91-6.5-6.5-6.5s-6.5,2.91-6.5,6.5
	C127,410.4,129.91,413.31,133.5,413.31z"/>
<path class="st2" d="M114.5,413.31c3.59,0,6.5-2.91,6.5-6.5c0-3.59-2.91-6.5-6.5-6.5s-6.5,2.91-6.5,6.5
	C108,410.4,110.91,413.31,114.5,413.31z"/>
<path class="st2" d="M95.5,413.31c3.59,0,6.5-2.91,6.5-6.5c0-3.59-2.91-6.5-6.5-6.5s-6.5,2.91-6.5,6.5
	C89,410.4,91.91,413.31,95.5,413.31z"/>
<path class="st0" d="M307.46,185.25v-51.08H333v-24.87H208v125h106.86v-12.22c0-4.6,1.83-9.01,5.08-12.27
	c3.25-3.25,7.67-5.08,12.27-5.08h0.8v-19.49H307.46z"/>
<rect x="52" y="4.35" transform="matrix(0.9703 -0.2419 0.2419 0.9703 -3.8583 18.2775)" class="st0" width="41" height="41"/>
<rect x="362" y="432.31" class="st2" width="84" height="17"/>
<rect x="340" y="346.31" class="st0" width="123" height="16"/>
<rect y="523.31" class="st3" width="524" height="1"/>
<path class="st1" d="M331.04,524.31h152.93c9.96-0.01,18.02-8.08,18.04-18.03V222.34c-0.01-9.95-8.08-18.01-18.04-18.03H331.04
	c-9.96,0.01-18.02,8.07-18.04,18.03v283.95C313.01,516.24,321.08,524.3,331.04,524.31z M314.35,222.34
	c0.01-9.21,7.48-16.67,16.69-16.68h152.93c9.21,0.01,16.68,7.47,16.69,16.68v283.95c-0.01,9.21-7.48,16.67-16.69,16.68H331.04
	c-9.21-0.01-16.68-7.47-16.69-16.68V222.34z"/>
<path class="st1" d="M386,214.31c0,2.21,1.79,4,4,4c2.21,0,4-1.79,4-4c0-2.21-1.79-4-4-4S386,212.1,386,214.31z M387.33,214.31
	c0-1.47,1.19-2.67,2.67-2.67c1.47,0,2.67,1.19,2.67,2.67c0,1.47-1.19,2.67-2.67,2.67S387.33,215.79,387.33,214.31z"/>
<rect x="400" y="213.31" class="st3" width="30" height="1"/>
<path class="st2" d="M491,223.31v54c-29.82,0-54-24.18-54-54H491z"/>
<path class="st1" d="M325,506.31h166v-283H325V506.31z M489.66,504.97H326.34V224.66h163.31V504.97z"/>
<path class="st4" d="M451.5,274.31c10.22,0,18.5-8.28,18.5-18.5c0-10.22-8.28-18.5-18.5-18.5s-18.5,8.28-18.5,18.5
	C433,266.03,441.28,274.31,451.5,274.31z"/>
<path class="st2" d="M448.5,276.31c10.22,0,18.5-8.28,18.5-18.5c0-10.22-8.28-18.5-18.5-18.5s-18.5,8.28-18.5,18.5
	C430,268.03,438.28,276.31,448.5,276.31z"/>
<rect x="332" y="234.31" class="st3" width="26" height="9"/>
<rect x="346" y="324.31" class="st3" width="26" height="9"/>
<path class="st1" d="M347,359.31h124v-17H347V359.31z M469.65,358.01h-121.3v-14.38h121.3V358.01z"/>
<rect x="340" y="397.31" class="st0" width="123" height="16"/>
<rect x="346" y="374.31" class="st3" width="26" height="9"/>
<path class="st1" d="M347,410.31h124v-17H347V410.31z M469.65,409.01h-121.3v-14.38h121.3V409.01z"/>
<path class="st1" d="M366,445.31h85v-18h-85V445.31z M449.65,444.03h-82.3V428.6h82.3V444.03z"/>
<path class="st2" d="M466,352.81c0,2.74-1.72,5.19-4.3,6.12c-2.58,0.93-5.46,0.14-7.21-1.98l-0.01-0.01
	c-1.7-2.06-1.96-4.96-0.66-7.29c1.3-2.34,3.9-3.64,6.55-3.28c2.65,0.36,4.81,2.3,5.44,4.9c0,0,0,0,0,0.01c0,0,0,0,0.01,0
	C465.94,351.78,466,352.3,466,352.81z"/>
<path class="st4" d="M466,352.44c0,2.9-1.77,5.49-4.41,6.47c-2.65,0.98-5.6,0.14-7.4-2.09l-0.01-0.01
	c-0.12-0.53-0.19-1.08-0.19-1.62c0-2.9,1.77-5.49,4.41-6.47c2.65-0.98,5.6-0.14,7.4,2.09c0,0,0,0,0,0c0,0,0,0,0,0
	C465.94,351.35,466,351.89,466,352.44z"/>
<path class="st2" d="M462.5,362.31c3.59,0,6.5-2.91,6.5-6.5c0-3.59-2.91-6.5-6.5-6.5s-6.5,2.91-6.5,6.5
	C456,359.4,458.91,362.31,462.5,362.31z"/>
<path class="st2" d="M466,402.81c0,2.74-1.72,5.19-4.3,6.12c-2.58,0.93-5.46,0.14-7.21-1.98l-0.01-0.01
	c-1.7-2.06-1.96-4.96-0.66-7.29c1.3-2.34,3.9-3.64,6.55-3.28c2.65,0.36,4.81,2.3,5.44,4.9c0,0,0,0,0,0.01c0,0,0,0,0.01,0
	C465.94,401.78,466,402.3,466,402.81z"/>
<path class="st4" d="M466,403.44c0,2.9-1.77,5.49-4.41,6.47c-2.65,0.98-5.6,0.14-7.4-2.09l-0.01-0.01
	c-0.12-0.53-0.19-1.08-0.19-1.62c0-2.9,1.77-5.49,4.41-6.47c2.65-0.98,5.6-0.14,7.4,2.09c0,0,0,0,0,0c0,0,0,0,0,0
	C465.94,402.35,466,402.89,466,403.44z"/>
<path class="st2" d="M462.5,413.31c3.59,0,6.5-2.91,6.5-6.5c0-3.59-2.91-6.5-6.5-6.5s-6.5,2.91-6.5,6.5
	C456,410.4,458.91,413.31,462.5,413.31z"/>
<rect x="315" y="141.31" class="st0" width="35" height="35"/>
<path class="st1" d="M443,158.31c0,4.42,3.58,8,8,8c4.42-0.01,7.99-3.58,8-8c0-4.42-3.58-8-8-8S443,153.9,443,158.31z
	 M444.33,158.31c0-3.68,2.98-6.67,6.67-6.67c3.68,0,6.66,2.99,6.67,6.67c0,3.68-2.98,6.67-6.67,6.67S444.33,162,444.33,158.31z"/>
<path class="st1" d="M257,279.31h17v-17h-17V279.31z M272.69,278.01h-14.38v-14.38h14.38V278.01z"/>
<path class="st1" d="M523,410.31h17v-17h-17V410.31z M538.69,409.01h-14.38v-14.38h14.38V409.01z"/>
<path class="st5" d="M195,293.22l3,1.63l10.2,5.54l16.47,8.93l9.6-17.93c1.83-3.4,2.23-7.4,1.13-11.1c-1.1-3.7-3.62-6.82-7.01-8.65
	c-7.34-3.99-16.41-2.75-22.43,3.06l-0.01,0.01c-1.44,1.4-2.66,3.01-3.61,4.79L195,293.22z"/>
<path class="st6" d="M240,473.39l-1.93,22.88l-7.24,1.04l-4.83-26L240,473.39z"/>
<path class="st5" d="M228.35,497.93c0,0,9.57-5.13,11.59-1.03c0,0-1.51,12.32,4.54,13.86c6.05,1.54,8.57,12.32,0,13.34
	c-8.57,1.03-14.11-2.05-17.14-2.05c-3.02,0,0-10.78,0-10.78L228.35,497.93z"/>
<path class="st6" d="M179,473.39l1.93,22.88l7.24,1.04l4.83-26L179,473.39z"/>
<path class="st5" d="M191.65,497.93c0,0-9.57-5.13-11.59-1.03c0,0,1.51,12.32-4.54,13.86c-6.05,1.54-8.57,12.32,0,13.34
	c8.57,1.03,14.11-2.05,17.14-2.05c3.02,0,0-10.78,0-10.78L191.65,497.93z"/>
<path class="st6" d="M219.5,297.31c7.46,0,13.5-6.04,13.5-13.5c0-7.46-6.04-13.5-13.5-13.5s-13.5,6.04-13.5,13.5
	C206,291.27,212.04,297.31,219.5,297.31z"/>
<path class="st6" d="M179,309.11l10.49,16.69l12.49-1.01l20.49,1.52c0,0,1.93-3.92,3.51-7.73c0.86-1.9,1.53-3.89,1.98-5.93
	c0.5-3.54-6.5-7.08-6.5-7.08s-0.27-0.05-0.74-0.16c-0.61-0.15-1.55-0.39-2.58-0.74c-2.32-0.8-5.12-2.15-5.68-4.15
	c-1-3.54,6.5-8.6,6.5-8.6l-9-8.6c0,0-7.99,11.24-17.7,13.79c-0.56,0.15-1.13,0.27-1.71,0.35c-0.03,0.01-0.05,0.01-0.08,0.02
	C180,299,179,309.11,179,309.11z"/>
<path class="st6" d="M184.26,305.31l-5.79,4.54c0,0-4.74,21.68-3.16,27.73c1.58,6.05-0.53,11.6-0.53,12.61
	c0,1.01-4.74,38.83-4.74,38.83s-9.47,20.17,0.53,18.15c10-2.02,6.31-22.19,6.31-22.19l12.1-35.3v-29.75L184.26,305.31z"/>
<path class="st6" d="M224.05,309.31l4.09,3l2.05,41.99l15.34,36c0,0,11.25,17.5,4.09,18s-11.76-18-11.76-18l-13.81-34.5l-2.05-33.5
	L224.05,309.31z"/>
<path class="st5" d="M198.73,311.31c0,0,10.09,7.08,26.23,4.55c0,0,4.54,9.1,2.02,14.15c-2.52,5.06,3.03,17.19,4.03,18.7
	c1.01,1.52,12.61,32.86,16.64,66.73c4.03,33.87,15.13,57.13,5.55,60.16c-9.58,3.03-29.25,6.57-31.27,3.54
	c-2.02-3.03-5.04-78.36-5.04-78.36l-5.55,28.82c0,0,7.57,49.04,2.02,50.05c-5.55,1.01-40.35-2.02-39.34-8.09
	c1.01-6.07,11.1-37.92,11.1-37.92s-0.5-63.7,9.58-75.83c0,0,4.03-6.57-1.51-15.17c-5.55-8.6-5.04-22.24-5.04-22.24
	S192.18,320.41,198.73,311.31z"/>
<path class="st5" d="M190,297.67l8.08,18.65l1.92-1.01l-8.36-17.99L190,297.67z"/>
<path class="st5" d="M218,305.31l6.45,14l1.55-0.14l-0.53-2.38l-4.84-10.74C220.01,305.91,219.05,305.67,218,305.31z"/>
<path class="st5" d="M197.38,294.34c0.99,3.27,3.79,5.61,7.11,5.94c3.32,0.33,6.51-1.41,8.09-4.42c-6.37-8.54-0.91-13.9,9.44-17.96
	c1.59-3.03,1.24-6.75-0.89-9.42c-5.77-0.76-11.57,1.2-15.78,5.33l-0.01,0.01l-7.35,13.98C196.93,289.8,196.71,292.16,197.38,294.34z
	"/>
<path class="st6" d="M212.5,288.31c0.83,0,1.5-1.34,1.5-3c0-1.66-0.67-3-1.5-3s-1.5,1.34-1.5,3
	C211,286.97,211.67,288.31,212.5,288.31z"/>
<path class="st5" d="M218,280.43l15.21,6.88l2.79-6.14c-0.48-2.24-1.49-4.34-2.93-6.13l-10.47-4.73L218,280.43z"/>
<path class="st2" d="M254.5,415.31c3.59,0,6.5-2.91,6.5-6.5c0-3.59-2.91-6.5-6.5-6.5s-6.5,2.91-6.5,6.5
	C248,412.4,250.91,415.31,254.5,415.31z"/>
<path class="st7" d="M38.5,455.31c2.49,0,4.5-2.02,4.5-4.5c0-2.49-2.01-4.5-4.5-4.5s-4.5,2.01-4.5,4.5
	C34,453.3,36.01,455.31,38.5,455.31z"/>
<rect x="59" y="474.31" class="st3" width="1" height="50"/>
<path class="st3" d="M60,480.31c3.87,0,7-3.13,7-7c0-3.87-3.13-7-7-7s-7,3.13-7,7C53,477.18,56.13,480.31,60,480.31z"/>
<path class="st3" d="M59,504.31c0,0-0.98-21.27-21-18.8L59,504.31z"/>
</svg>
