<?xml version="1.0" encoding="utf-8"?>
<!-- Generator: Adobe Illustrator 24.2.3, SVG Export Plug-In . SVG Version: 6.00 Build 0)  -->
<svg version="1.1" id="Слой_1" xmlns="http://www.w3.org/2000/svg" xmlns:xlink="http://www.w3.org/1999/xlink" x="0px" y="0px"
	 viewBox="0 0 36 36" style="enable-background:new 0 0 36 36;" xml:space="preserve">
<style type="text/css">
	.st0{fill-rule:evenodd;clip-rule:evenodd;fill:#010202;}
</style>
<path class="st0" d="M35.62,22.24c-0.23-0.09-0.49-0.03-0.66,0.14l-2.56,2.69v-16h0l2.44-2.64c0.22-0.24,0.21-0.62-0.03-0.85l0,0
	l-0.88-0.82l1.22-1.32c0.22-0.24,0.21-0.62-0.03-0.85l-2.64-2.44c-0.24-0.22-0.62-0.21-0.85,0.03L27.37,4.8H6.6c0-1.66-1.34-3-3-3H3
	c-1.66,0-3,1.34-3,3v25.8c0,0.33,0.27,0.6,0.6,0.6h9.08l-1.26,1.51c-0.21,0.25-0.18,0.63,0.08,0.84l2.77,2.3
	c0.25,0.21,0.63,0.18,0.85-0.08l0,0l3.07-3.69c0.21-0.26,0.35-0.57,0.39-0.89h10.99l-3.61,3.79c-0.23,0.24-0.22,0.62,0.02,0.85
	C23.1,35.94,23.25,36,23.4,36h12c0.33,0,0.6-0.27,0.6-0.6V22.8C36,22.55,35.85,22.33,35.62,22.24z M33.56,6.06L32.4,7.31V6.43
	l0.72-0.78L33.56,6.06z M31.2,5.96L31.2,5.96L31.2,5.96l1.04-1.12l-1.76-1.63l-6.11,6.61l1.76,1.63L31.2,5.96z M24.97,12.01
	l-1.38,0.4l0.29-1.41L24.97,12.01z M33.87,3.08l-1.76-1.63l-0.82,0.88l1.76,1.63L33.87,3.08z M3,3h0.6C4.59,3,5.4,3.8,5.4,4.8v22.81
	C4.88,27.22,4.25,27,3.6,27H3c-0.65,0-1.28,0.22-1.8,0.62V4.8C1.2,3.8,2.01,3,3,3z M3.6,28.2H3C2.01,28.2,1.2,29,1.2,30h4.2
	C5.4,29,4.59,28.2,3.6,28.2z M14.26,31.32l-0.38,0.46l-1.84-1.54l0.38-0.46c0.21-0.25,0.59-0.29,0.84-0.08c0,0,0,0,0,0l0.92,0.77
	C14.44,30.69,14.47,31.07,14.26,31.32L14.26,31.32L14.26,31.32z M9.73,33.02l1.84,1.54l1.54-1.84l-1.84-1.54L9.73,33.02z M15.32,30
	c-0.1-0.17-0.23-0.31-0.37-0.44l-0.92-0.77c-0.76-0.64-1.9-0.53-2.53,0.23L10.68,30H6.6V6h19.66l-3.18,3.44
	c-0.05,0.05-0.08,0.11-0.11,0.17c-0.01,0.02-0.01,0.03-0.02,0.05c0,0.01,0,0.01-0.01,0.02c0,0.01-0.01,0.02-0.01,0.03l-0.72,3.42
	c-0.07,0.32,0.14,0.64,0.47,0.71c0.1,0.02,0.2,0.02,0.29-0.01l3.36-0.98c0.01,0,0.02-0.01,0.02-0.01c0.01,0,0.01-0.01,0.02-0.01
	c0.02-0.01,0.03-0.01,0.05-0.02c0.07-0.03,0.13-0.07,0.18-0.13l4.6-4.97v18.61L27.71,30H15.32z M24.8,34.8h10V24.3L24.8,34.8z
	 M28.8,33.6c-0.24,0-0.46-0.15-0.55-0.37c-0.09-0.22-0.04-0.48,0.13-0.65l4.2-4.2c0.11-0.11,0.26-0.18,0.42-0.18
	c0.33,0,0.6,0.27,0.6,0.6V33c0,0.33-0.27,0.6-0.6,0.6H28.8z M32.4,32.4v-2.15l-2.15,2.15H32.4z M22.2,22.8h4.2
	c0.33,0,0.6,0.27,0.6,0.6c0,0.33-0.27,0.6-0.6,0.6H9.6C9.27,24,9,23.73,9,23.4c0-0.33,0.27-0.6,0.6-0.6h4.2v-6.6
	c0-0.16,0.06-0.31,0.18-0.42l3.6-3.6c0.23-0.23,0.61-0.23,0.85,0l3.6,3.6c0.11,0.11,0.18,0.27,0.18,0.42V22.8z M20.15,15.6L18,13.45
	l-2.15,2.15H20.15z M15,16.8h6v6h-6V16.8z M17.4,9.6h1.2v1.2h-1.2V9.6z M18.6,25.2h-1.2v1.2h1.2V25.2z"/>
</svg>
